<?xml version="1.0" encoding="UTF-8"?>
<svg
    xmlns="http://www.w3.org/2000/svg"
    xmlns:xlink="http://www.w3.org/1999/xlink"
    width="171.75"
    zoomAndPan="magnify"
    viewBox="0 0 171.75 30.000001"
    height="30.000001"
    preserveAspectRatio="xMidYMid meet"
    version="1.0">
    <defs>
        <clipPath id="clip-0"><path
            d="M 3 7.773438 L 168.859375 7.773438 L 168.859375 21.582031 L 3 21.582031 Z M 3 7.773438 "
            clip-rule="nonzero"/></clipPath>
    </defs>
    <g clip-path="url(#clip-0)"><path
        fill="rgb(10.978699%, 56.858826%, 94.898987%)"
        d="M 159.851562 21.582031 L 157.210938 15.210938 L 155.632812 17.753906 L 153.203125 16.039062 L 151.921875 17.144531 L 150.578125 15.9375 L 144.78125 16.660156 L 139.695312 16.054688 L 138.011719 16.699219 L 136.101562 15.714844 L 134.140625 18.167969 L 133.015625 12.96875 L 131.667969 21.582031 L 129.027344 15.210938 L 127.449219 17.753906 L 125.019531 16.039062 L 123.738281 17.144531 L 122.398438 15.9375 L 116.597656 16.660156 L 111.511719 16.054688 L 109.828125 16.699219 L 107.917969 15.714844 L 105.957031 18.167969 L 104.832031 12.96875 L 103.484375 21.582031 L 100.847656 15.210938 L 99.265625 17.753906 L 96.839844 16.039062 L 95.558594 17.144531 L 94.214844 15.9375 L 88.417969 16.660156 L 83.332031 16.054688 L 81.644531 16.699219 L 79.734375 15.714844 L 77.773438 18.167969 L 76.648438 12.96875 L 75.304688 21.582031 L 72.664062 15.210938 L 71.085938 17.753906 L 68.65625 16.039062 L 67.375 17.144531 L 66.03125 15.9375 L 60.234375 16.660156 L 55.148438 16.054688 L 53.464844 16.699219 L 51.550781 15.714844 L 49.589844 18.167969 L 48.46875 12.96875 L 47.121094 21.582031 L 44.480469 15.210938 L 42.902344 17.753906 L 40.472656 16.039062 L 39.191406 17.144531 L 37.851562 15.9375 L 32.050781 16.660156 L 26.964844 16.054688 L 25.28125 16.699219 L 23.371094 15.714844 L 21.410156 18.167969 L 20.285156 12.96875 L 18.941406 21.582031 L 16.300781 15.210938 L 14.71875 17.753906 L 12.292969 16.039062 L 11.011719 17.144531 L 9.671875 15.9375 L 3.925781 16.65625 C 3.671875 16.683594 3.429688 16.496094 3.398438 16.230469 C 3.367188 15.964844 3.550781 15.722656 3.8125 15.691406 L 9.976562 14.921875 L 11.023438 15.863281 L 12.234375 14.820312 L 14.445312 16.382812 L 16.46875 13.132812 L 18.523438 18.09375 L 20.132812 7.78125 L 21.914062 16.003906 L 23.117188 14.5 L 25.335938 15.640625 L 26.847656 15.0625 L 32.050781 15.683594 L 38.160156 14.921875 L 39.203125 15.863281 L 40.417969 14.820312 L 42.628906 16.382812 L 44.652344 13.132812 L 46.707031 18.09375 L 48.316406 7.78125 L 50.097656 16.003906 L 51.296875 14.5 L 53.519531 15.640625 L 55.03125 15.0625 L 60.230469 15.683594 L 66.339844 14.921875 L 67.386719 15.867188 L 68.597656 14.820312 L 70.8125 16.382812 L 72.832031 13.132812 L 74.886719 18.09375 L 76.496094 7.78125 L 78.277344 16.003906 L 79.480469 14.5 L 81.703125 15.640625 L 83.210938 15.0625 L 88.414062 15.683594 L 94.523438 14.921875 L 95.570312 15.867188 L 96.78125 14.820312 L 98.992188 16.382812 L 101.015625 13.132812 L 103.070312 18.09375 L 104.679688 7.78125 L 106.460938 16.003906 L 107.664062 14.5 L 109.886719 15.640625 L 111.394531 15.0625 L 116.597656 15.683594 L 122.707031 14.921875 L 123.753906 15.867188 L 124.964844 14.820312 L 127.175781 16.382812 L 129.195312 13.132812 L 131.253906 18.09375 L 132.863281 7.78125 L 134.644531 16.003906 L 135.84375 14.5 L 138.066406 15.640625 L 139.578125 15.0625 L 144.777344 15.683594 L 150.886719 14.921875 L 151.933594 15.867188 L 153.144531 14.820312 L 155.359375 16.382812 L 157.378906 13.132812 L 159.4375 18.09375 L 161.042969 7.78125 L 162.828125 16.003906 L 164.027344 14.5 L 166.25 15.640625 L 167.757812 15.0625 L 173.015625 15.691406 C 173.277344 15.722656 173.464844 15.960938 173.433594 16.230469 C 173.402344 16.496094 173.164062 16.683594 172.90625 16.65625 L 167.878906 16.054688 L 166.191406 16.699219 L 164.28125 15.714844 L 162.320312 18.167969 L 161.195312 12.96875 L 159.851562 21.582031 "
        fill-opacity="1"
        fill-rule="nonzero"/></g>
</svg>