<?xml version="1.0" encoding="UTF-8"?><svg xmlns="http://www.w3.org/2000/svg" xmlns:xlink="http://www.w3.org/1999/xlink" contentScriptType="text/ecmascript" width="52.5" zoomAndPan="magnify" contentStyleType="text/css" viewBox="0 0 52.5 52.499999" height="52.499999" preserveAspectRatio="xMidYMid meet" version="1.0"><defs><clipPath id="clip-0"><path d="M 28 3.09375 L 34 3.09375 L 34 14 L 28 14 Z M 28 3.09375 " clip-rule="nonzero"/></clipPath><clipPath id="clip-1"><path d="M 23 3.09375 L 27 3.09375 L 27 11 L 23 11 Z M 23 3.09375 " clip-rule="nonzero"/></clipPath><clipPath id="clip-2"><path d="M 38 3.09375 L 43 3.09375 L 43 9 L 38 9 Z M 38 3.09375 " clip-rule="nonzero"/></clipPath></defs><path fill="rgb(56.079102%, 81.17981%, 81.568909%)" d="M 9.390625 45.375 L 40.722656 30.101562 C 41.417969 29.765625 41.277344 29.03125 41.160156 28.800781 C 33.9375 14.765625 22.535156 10.058594 22.535156 10.058594 C 22.304688 9.933594 21.621094 9.765625 21.214844 10.484375 L 6.027344 41.988281 C 5.0625 43.496094 6.730469 46.570312 9.390625 45.375 Z M 18.28125 20.992188 L 30.273438 33.050781 L 19.828125 38.144531 L 13.21875 31.496094 Z M 22.503906 12.234375 C 29.601562 16.046875 35.3125 21.800781 39 28.796875 L 32.101562 32.160156 L 19.167969 19.152344 Z M 7.75 42.832031 L 12.332031 33.332031 L 18 39.035156 L 8.554688 43.640625 C 8.074219 43.859375 7.492188 43.390625 7.75 42.832031 Z M 7.75 42.832031 " fill-opacity="1" fill-rule="nonzero"/><g clip-path="url(#clip-0)"><path fill="rgb(56.079102%, 81.17981%, 81.568909%)" d="M 30.574219 13.332031 L 31.476562 11.816406 C 32.859375 9.503906 33.589844 6.851562 33.589844 4.15625 C 33.589844 3.621094 33.160156 3.191406 32.628906 3.191406 C 32.097656 3.191406 31.671875 3.621094 31.671875 4.15625 C 31.671875 6.503906 31.035156 8.8125 29.832031 10.824219 L 28.929688 12.339844 C 28.65625 12.796875 28.804688 13.390625 29.257812 13.664062 C 29.414062 13.753906 30.042969 14.070312 30.574219 13.332031 Z M 30.574219 13.332031 " fill-opacity="1" fill-rule="nonzero"/></g><g clip-path="url(#clip-1)"><path fill="rgb(56.079102%, 81.17981%, 81.568909%)" d="M 25.816406 4.585938 C 26.050781 4.109375 25.859375 3.53125 25.386719 3.292969 C 24.910156 3.054688 24.335938 3.25 24.097656 3.722656 L 23.746094 4.433594 C 23.199219 5.535156 23.410156 6.859375 24.277344 7.730469 C 24.558594 8.015625 24.628906 8.445312 24.453125 8.804688 L 24.097656 9.511719 C 23.863281 9.988281 24.058594 10.5625 24.527344 10.804688 C 25.171875 11.136719 25.648438 10.710938 25.816406 10.371094 L 26.167969 9.664062 C 26.714844 8.5625 26.503906 7.238281 25.636719 6.367188 C 25.351562 6.082031 25.285156 5.652344 25.460938 5.292969 Z M 25.816406 4.585938 " fill-opacity="1" fill-rule="nonzero"/></g><path fill="rgb(56.079102%, 81.17981%, 81.568909%)" d="M 35.527344 8.976562 L 35.515625 8.976562 C 34.988281 8.976562 34.5625 9.410156 34.5625 9.941406 C 34.5625 10.472656 34.996094 10.90625 35.527344 10.90625 C 36.054688 10.90625 36.484375 10.472656 36.484375 9.941406 C 36.484375 9.410156 36.054688 8.976562 35.527344 8.976562 Z M 35.527344 8.976562 " fill-opacity="1" fill-rule="nonzero"/><path fill="rgb(56.079102%, 81.17981%, 81.568909%)" d="M 21.140625 6.082031 C 21.140625 5.550781 20.710938 5.121094 20.179688 5.121094 L 20.171875 5.121094 C 19.640625 5.121094 19.214844 5.550781 19.214844 6.082031 C 19.214844 6.617188 19.648438 7.046875 20.179688 7.046875 C 20.710938 7.046875 21.140625 6.617188 21.140625 6.082031 Z M 21.140625 6.082031 " fill-opacity="1" fill-rule="nonzero"/><path fill="rgb(56.079102%, 81.17981%, 81.568909%)" d="M 47.015625 17.65625 C 44.332031 17.65625 41.699219 18.390625 39.398438 19.78125 L 37.890625 20.691406 C 37.4375 20.964844 37.289062 21.554688 37.5625 22.011719 C 37.742188 22.316406 38.195312 22.699219 38.878906 22.34375 L 40.382812 21.433594 C 42.386719 20.226562 44.679688 19.585938 47.015625 19.585938 C 47.546875 19.585938 47.976562 19.15625 47.976562 18.621094 C 47.976562 18.089844 47.546875 17.65625 47.015625 17.65625 Z M 47.015625 17.65625 " fill-opacity="1" fill-rule="nonzero"/><path fill="rgb(56.079102%, 81.17981%, 81.568909%)" d="M 47.445312 27.203125 C 48.695312 26.339844 47.492188 24.980469 46.585938 25.476562 L 45.882812 25.832031 C 45.523438 26.011719 45.097656 25.9375 44.816406 25.65625 C 43.949219 24.789062 42.636719 24.574219 41.539062 25.121094 L 40.832031 25.476562 C 39.726562 26.15625 40.585938 27.722656 41.691406 27.203125 L 42.394531 26.847656 C 42.753906 26.667969 43.179688 26.738281 43.460938 27.023438 C 44.007812 27.570312 44.734375 27.859375 45.46875 27.859375 C 45.902344 27.859375 46.335938 27.757812 46.738281 27.558594 Z M 47.445312 27.203125 " fill-opacity="1" fill-rule="nonzero"/><path fill="rgb(56.079102%, 81.17981%, 81.568909%)" d="M 41.269531 14.765625 C 40.742188 14.765625 40.316406 15.195312 40.316406 15.730469 C 40.316406 16.261719 40.75 16.695312 41.28125 16.695312 C 41.8125 16.695312 42.238281 16.261719 42.238281 15.730469 C 42.238281 15.195312 41.8125 14.765625 41.28125 14.765625 Z M 41.269531 14.765625 " fill-opacity="1" fill-rule="nonzero"/><path fill="rgb(56.079102%, 81.17981%, 81.568909%)" d="M 45.109375 30.195312 C 44.578125 30.195312 44.152344 30.628906 44.152344 31.160156 C 44.152344 31.695312 44.585938 32.125 45.117188 32.125 C 45.648438 32.125 46.078125 31.695312 46.078125 31.160156 C 46.078125 30.628906 45.648438 30.195312 45.117188 30.195312 Z M 45.109375 30.195312 " fill-opacity="1" fill-rule="nonzero"/><path fill="rgb(56.079102%, 81.17981%, 81.568909%)" d="M 36.746094 14.480469 C 36.933594 14.671875 37.480469 15.035156 38.101562 14.480469 L 43.859375 8.695312 C 44.234375 8.316406 44.234375 7.707031 43.859375 7.332031 C 43.484375 6.953125 42.875 6.953125 42.5 7.332031 L 36.746094 13.117188 C 36.371094 13.496094 36.371094 14.105469 36.746094 14.480469 Z M 36.746094 14.480469 " fill-opacity="1" fill-rule="nonzero"/><g clip-path="url(#clip-2)"><path fill="rgb(56.079102%, 81.17981%, 81.568909%)" d="M 40.140625 7.582031 L 42.058594 4.691406 C 42.355469 4.246094 42.234375 3.648438 41.792969 3.351562 C 41.351562 3.054688 40.757812 3.175781 40.464844 3.621094 L 38.546875 6.511719 C 38.25 6.957031 38.371094 7.554688 38.8125 7.851562 C 38.976562 7.960938 39.648438 8.265625 40.140625 7.582031 Z M 40.140625 7.582031 " fill-opacity="1" fill-rule="nonzero"/></g><path fill="rgb(56.079102%, 81.17981%, 81.568909%)" d="M 43.339844 12.40625 C 43.523438 12.683594 44.074219 13.066406 44.671875 12.671875 L 47.546875 10.746094 C 47.988281 10.449219 48.109375 9.851562 47.8125 9.40625 C 47.519531 8.960938 46.925781 8.84375 46.484375 9.140625 L 43.605469 11.070312 C 43.164062 11.363281 43.046875 11.960938 43.339844 12.40625 Z M 43.339844 12.40625 " fill-opacity="1" fill-rule="nonzero"/></svg>