<svg
    xmlns="http://www.w3.org/2000/svg"
    xmlns:xlink="http://www.w3.org/1999/xlink"
    xmlns:lucid="lucid"
    width="1077.25"
    height="1367">
    <g transform="translate(0 0)" lucid:page-tab-id="0_0"><path
        d="M384.2 20c45.6 0 82.58 30.6 82.58 68.37 0 37.76-36.97 68.37-82.58 68.37H136.44c-45.6 0-82.58-30.6-82.58-68.37C53.86 50.6 90.83 20 136.44 20z"
        stroke="#588de4"
        stroke-width="7"
        fill-opacity="0"/><use
        xlink:href="#a"
        transform="matrix(1,0,0,1,58.85701411835379,25) translate(92.15771604938283 72.87777777777777)"/><path
        d="M53.86 228c0-4.42 3.58-8 8-8h396.92c4.42 0 8 3.58 8 8v144c0 4.42-3.58 8-8 8H61.86c-4.42 0-8-3.58-8-8z"
        stroke="#b2b2b2"
        stroke-width="4"
        fill-opacity="0"/><use
        xlink:href="#b"
        transform="matrix(1,0,0,1,58.85701411835376,225) translate(47.277469135802676 84.82222222222221)"/><use
        xlink:href="#c"
        transform="matrix(1,0,0,1,58.85701411835376,225) translate(232.53549382716045 84.82222222222221)"/><path
        d="M53.86 787.53c0-4.42 3.58-8 8-8h396.92c4.42 0 8 3.58 8 8v157.13c0 4.42-3.58 8-8 8H61.86c-4.42 0-8-3.58-8-8z"
        stroke="#99d5ca"
        stroke-width="6"
        fill-opacity="0"/><use
        xlink:href="#d"
        transform="matrix(1,0,0,1,58.85701411835379,784.5275475291962) translate(68.61666666666682 90.93333333333332)"/><use
        xlink:href="#e"
        transform="matrix(1,0,0,1,58.85701411835379,784.5275475291962) translate(193.06296296296298 90.93333333333332)"/><path
        d="M53.86 1124.56c0-4.42 3.58-8 8-8h396.92c4.42 0 8 3.58 8 8v173.95c0 4.43-3.58 8-8 8H61.86c-4.42 0-8-3.57-8-8z"
        stroke="#c7e8ac"
        stroke-width="6"
        fill-opacity="0"/><use
        xlink:href="#d"
        transform="matrix(1,0,0,1,58.85701411835382,1121.5560803394617) translate(78.48055555555568 98.93333333333332)"/><use
        xlink:href="#f"
        transform="matrix(1,0,0,1,58.85701411835382,1121.5560803394617) translate(202.92685185185184 98.93333333333332)"/><path
        d="M129.82 466.02c2.9-3.33 8.85-6.02 13.27-6.02h227.67c4.42 0 10.36 2.7 13.27 6.02l70.7 80.74c2.9 3.32 2.9 8.7 0 12.04l-70.7 80.74c-2.9 3.32-8.85 6.02-13.27 6.02H143.1c-4.43 0-10.37-2.7-13.28-6.02l-70.7-80.74c-2.9-3.33-2.9-8.72 0-12.04z"
        stroke="#19967d"
        stroke-width="3"
        fill="#5e5e5e"/><use
        xlink:href="#g"
        transform="matrix(1,0,0,1,58.85701411835379,465) translate(126.99444444444453 97.37777777777777)"/><path
        d="M996.27 556.88c35.2 0 63.73 24.22 63.73 54.1 0 29.88-28.53 54.1-63.73 54.1h-191.2c-35.2 0-63.72-24.22-63.72-54.1 0-29.88 28.53-54.1 63.73-54.1z"
        stroke="#333"
        fill="#5abaa7"
        fill-opacity=".91"/><use
        xlink:href="#h"
        transform="matrix(1,0,0,1,746.3457494743168,561.876493546163) translate(50.39660493827165 56.65555555555555)"/><path
        d="M696.26 1072.22c0-4.4 3.58-8 8-8h329.2c4.43 0 8 3.6 8 8v133.63c0 4.42-3.57 8-8 8h-329.2c-4.42 0-8-3.58-8-8z"
        stroke="#333"
        stroke-width="2"
        fill="#1b2f1d"
        fill-opacity=".89"/><use
        xlink:href="#i"
        transform="matrix(1,0,0,1,701.2616401321719,1069.2235141308893) translate(54.09290123456799 78.04444444444444)"/><path
        d="M996.27 714.92c35.2 0 63.73 22.38 63.73 50 0 27.6-28.53 49.98-63.73 49.98h-191.2c-35.2 0-63.72-22.38-63.72-50 0-27.6 28.53-49.98 63.73-49.98z"
        stroke="#333"
        fill="#99d5ca"/><use
        xlink:href="#j"
        transform="matrix(1,0,0,1,746.3457494743167,719.9230879892744) translate(55.2663580246914 52.15555555555555)"/><path
        d="M996.27 1250.02c35.2 0 63.73 22.38 63.73 50 0 27.6-28.53 49.98-63.73 49.98h-191.2c-35.2 0-63.72-22.38-63.72-50 0-27.6 28.53-49.98 63.73-49.98z"
        stroke="#333"
        fill="#c7e8ac"
        fill-opacity=".99"/><use
        xlink:href="#k"
        transform="matrix(1,0,0,1,746.3457494743167,1255.019250480896) translate(109.80864197530869 53.04444444444444)"/><path
        d="M471.78 817.7h32.76c.2 0 .35.14.35.33 0 .2.15.35.34.35h12.02"
        stroke="#19967d"
        stroke-width="4"
        fill="none"/><path d="M471.83 819.7h-2.05v-4h2.05" fill="#19967d"/><path
        d="M533.53 818.38l-14.27 4.64v-9.27z"
        stroke="#19967d"
        stroke-width="4"
        fill="#19967d"/><path
        d="M738.85 764.9H536.37c-6.63 0-12 5.4-12 12v18.74"
        stroke="#19967d"
        stroke-width="4"
        fill="none"/><path d="M740.85 764.98l.07 1.93h-2.12v-4h2.12" fill="#19967d"/><path
        d="M524.37 811.9l-4.64-14.26H529z"
        stroke="#19967d"
        stroke-width="4"
        fill="#19967d"/><path
        d="M739.35 610.98H535.18c-6.63 0-12 5.37-12 12v91.43c0 .16.12.28.26.28.15 0 .27.12.27.26v82.82"
        stroke="#19967d"
        stroke-width="3"
        fill="none"/><path d="M740.85 611.06l.05 1.42h-1.6v-3h1.6" fill="#19967d"/><path
        d="M523.7 813.53l-4.63-14.27h9.27z"
        stroke="#19967d"
        stroke-width="3"
        fill="#19967d"/><path
        d="M693.76 939.56H539.1c-6.62 0-12-5.37-12-12V839"
        stroke="#19967d"
        stroke-width="3"
        fill="none"/><path d="M695.26 941.06h-1.54v-3h1.54" fill="#19967d"/><path
        d="M527.1 823.23l4.64 14.27h-9.27z"
        stroke="#19967d"
        stroke-width="3"
        fill="#19967d"/><path d="M471.78 1211.53H517.26" stroke="#a3d977" stroke-width="4" fill="none"/><path d="M471.83 1213.53h-2.05v-4h2.05" fill="#a3d977"/><path
        d="M533.53 1211.53l-14.27 4.64v-9.27z"
        stroke="#a3d977"
        stroke-width="4"
        fill="#a3d977"/><path
        d="M738.85 1300h-221c-6.64 0-12-5.36-12-12v-53.73"
        stroke="#a3d977"
        stroke-width="4"
        fill="none"/><path d="M740.85 1300.08l.07 1.93h-2.12v-4h2.12" fill="#a3d977"/><path
        d="M505.84 1218l4.63 14.27h-9.27z"
        stroke="#a3d977"
        stroke-width="4"
        fill="#a3d977"/><path
        d="M693.26 1110.54h-175.8c-6.6 0-12 5.38-12 12v66.25"
        stroke="#a3d977"
        stroke-width="4"
        fill="none"/><path d="M695.26 1112.54h-2.05v-4h2.06" fill="#a3d977"/><path
        d="M505.47 1205.06l-4.63-14.27h9.27z"
        stroke="#a3d977"
        stroke-width="4"
        fill="#a3d977"/><path
        d="M693.76 1076.33H539.1c-6.62 0-12-5.37-12-12V839"
        stroke="#19967d"
        stroke-width="3"
        fill="none"/><path d="M695.26 1077.83h-1.54v-3h1.54" fill="#19967d"/><path
        d="M527.1 823.23l4.64 14.27h-9.27z"
        stroke="#19967d"
        stroke-width="3"
        fill="#19967d"/><path
        d="M693.26 1002.3H517.02c-6.63 0-12 5.37-12 12v174.5"
        stroke="#a3d977"
        stroke-width="4"
        fill="none"/><path d="M695.26 1004.3h-2.05v-4h2.06" fill="#a3d977"/><path
        d="M505.02 1205.06l-4.64-14.27h9.27z"
        stroke="#a3d977"
        stroke-width="4"
        fill="#a3d977"/><path
        d="M696.26 872.75c0-4.42 3.58-8 8-8h329.2c4.43 0 8 3.58 8 8v133.63c0 4.42-3.57 8-8 8h-329.2c-4.42 0-8-3.58-8-8z"
        stroke="#333"
        stroke-width="2"
        fill="#303030"
        fill-opacity=".88"/><use
        xlink:href="#l"
        transform="matrix(1,0,0,1,701.2616401321719,869.7500134869284) translate(34.03765432098774 78.04444444444444)"/><use
        xlink:href="#m"
        transform="matrix(1,0,0,1,701.2616401321719,869.7500134869284) translate(185.7648148148148 78.04444444444444)"/><path d="M260.32 163.24V191.02" stroke="#e5e5e5" stroke-width="6" fill="none"/><path d="M263.32 163.32h-6v-3.08h6" fill="#e5e5e5"/><path
        d="M260.32 208.3L255.68 194h9.27z"
        stroke="#e5e5e5"
        stroke-width="6"
        fill="#e5e5e5"/><path d="M260.32 385V431.52" stroke="#e5e5e5" stroke-width="6" fill="none"/><path d="M263.32 385.08h-6V382h6" fill="#e5e5e5"/><path
        d="M260.32 448.8l-4.64-14.28h9.27z"
        stroke="#e5e5e5"
        stroke-width="6"
        fill="#e5e5e5"/><path
        d="M256.93 650.06v61.67c0 .04-.03.06-.06.06s-.06.02-.06.05v37.7"
        stroke="#e5e5e5"
        stroke-width="6"
        fill="none"/><path d="M259.93 650.13h-6v-3.07h6" fill="#e5e5e5"/><path
        d="M256.8 766.82l-4.62-14.27h9.27z"
        stroke="#e5e5e5"
        stroke-width="6"
        fill="#e5e5e5"/><path d="M260.32 958.66v127.93" stroke="#e5e5e5" stroke-width="6" fill="none"/><path d="M263.32 958.73h-6v-3.07h6" fill="#e5e5e5"/><path
        d="M260.32 1103.85l-4.64-14.27h9.27z"
        stroke="#e5e5e5"
        stroke-width="6"
        fill="#e5e5e5"/>
        <defs><path
            fill="#588de4"
            d="M185-189c-5-48-123-54-124 2 14 75 158 14 163 119 3 78-121 87-175 55-17-10-28-26-33-46l33-7c5 56 141 63 141-1 0-78-155-14-162-118-5-82 145-84 179-34 5 7 8 16 11 25"
            id="n"/><path
            fill="#588de4"
            d="M59-47c-2 24 18 29 38 22v24C64 9 27 4 27-40v-127H5v-23h24l9-43h21v43h35v23H59v120"
            id="o"/><path
            fill="#588de4"
            d="M100-194c62-1 85 37 85 99 1 63-27 99-86 99S16-35 15-95c0-66 28-99 85-99zM99-20c44 1 53-31 53-75 0-43-8-75-51-75s-53 32-53 75 10 74 51 75"
            id="p"/><path
            fill="#588de4"
            d="M115-194c55 1 70 41 70 98S169 2 115 4C84 4 66-9 55-30l1 105H24l-1-265h31l2 30c10-21 28-34 59-34zm-8 174c40 0 45-34 45-75s-6-73-45-74c-42 0-51 32-51 76 0 43 10 73 51 73"
            id="q"/><path
            fill="#588de4"
            d="M206 0h-36l-40-164L89 0H53L-1-190h32L70-26l43-164h34l41 164 42-164h31"
            id="r"/><path
            fill="#588de4"
            d="M141-36C126-15 110 5 73 4 37 3 15-17 15-53c-1-64 63-63 125-63 3-35-9-54-41-54-24 1-41 7-42 31l-33-3c5-37 33-52 76-52 45 0 72 20 72 64v82c-1 20 7 32 28 27v20c-31 9-61-2-59-35zM48-53c0 20 12 33 32 33 41-3 63-29 60-74-43 2-92-5-92 41"
            id="s"/><path
            fill="#588de4"
            d="M96-169c-40 0-48 33-48 73s9 75 48 75c24 0 41-14 43-38l32 2c-6 37-31 61-74 61-59 0-76-41-82-99-10-93 101-131 147-64 4 7 5 14 7 22l-32 3c-4-21-16-35-41-35"
            id="t"/><path
            fill="#588de4"
            d="M106-169C34-169 62-67 57 0H25v-261h32l-1 103c12-21 28-36 61-36 89 0 53 116 60 194h-32v-121c2-32-8-49-39-48"
            id="u"/>
            <g id="a"><use
                transform="matrix(0.13024691358024676,0,0,0.13024691358024676,0,0)"
                xlink:href="#n"/><use
                transform="matrix(0.13024691358024676,0,0,0.13024691358024676,31.259259259259224,0)"
                xlink:href="#o"/><use
                transform="matrix(0.13024691358024676,0,0,0.13024691358024676,44.2839506172839,0)"
                xlink:href="#p"/><use
                transform="matrix(0.13024691358024676,0,0,0.13024691358024676,70.33333333333327,0)"
                xlink:href="#q"/><use
                transform="matrix(0.13024691358024676,0,0,0.13024691358024676,96.38271604938261,0)"
                xlink:href="#r"/><use
                transform="matrix(0.13024691358024676,0,0,0.13024691358024676,130.1166666666665,0)"
                xlink:href="#s"/><use
                transform="matrix(0.13024691358024676,0,0,0.13024691358024676,156.16604938271587,0)"
                xlink:href="#o"/><use
                transform="matrix(0.13024691358024676,0,0,0.13024691358024676,169.19074074074055,0)"
                xlink:href="#t"/><use
                transform="matrix(0.13024691358024676,0,0,0.13024691358024676,192.63518518518498,0)"
                xlink:href="#u"/></g><path
                fill="#fff"
                d="M143 4C61 4 22-44 18-125c-5-107 100-154 193-111 17 8 29 25 37 43l-32 9c-13-25-37-40-76-40-61 0-88 39-88 99 0 61 29 100 91 101 35 0 62-11 79-27v-45h-74v-28h105v86C228-13 192 4 143 4"
                id="v"/><path
                fill="#fff"
                d="M100-194c63 0 86 42 84 106H49c0 40 14 67 53 68 26 1 43-12 49-29l28 8c-11 28-37 45-77 45C44 4 14-33 15-96c1-61 26-98 85-98zm52 81c6-60-76-77-97-28-3 7-6 17-6 28h103"
                id="w"/><path
                fill="#fff"
                d="M117-194c89-4 53 116 60 194h-32v-121c0-31-8-49-39-48C34-167 62-67 57 0H25l-1-190h30c1 10-1 24 2 32 11-22 29-35 61-36"
                id="x"/><path
                fill="#fff"
                d="M114-163C36-179 61-72 57 0H25l-1-190h30c1 12-1 29 2 39 6-27 23-49 58-41v29"
                id="y"/><path fill="#fff" d="M24-231v-30h32v30H24zM24 0v-190h32V0H24" id="z"/><path
                fill="#fff"
                d="M96-169c-40 0-48 33-48 73s9 75 48 75c24 0 41-14 43-38l32 2c-6 37-31 61-74 61-59 0-76-41-82-99-10-93 101-131 147-64 4 7 5 14 7 22l-32 3c-4-21-16-35-41-35"
                id="A"/>
            <g id="b"><use
                transform="matrix(0.13641975308641957,0,0,0.13641975308641957,0,0)"
                xlink:href="#v"/><use
                transform="matrix(0.13641975308641957,0,0,0.13641975308641957,38.19753086419748,0)"
                xlink:href="#w"/><use
                transform="matrix(0.13641975308641957,0,0,0.13641975308641957,65.4814814814814,0)"
                xlink:href="#x"/><use
                transform="matrix(0.13641975308641957,0,0,0.13641975308641957,92.7654320987653,0)"
                xlink:href="#w"/><use
                transform="matrix(0.13641975308641957,0,0,0.13641975308641957,120.04938271604922,0)"
                xlink:href="#y"/><use
                transform="matrix(0.13641975308641957,0,0,0.13641975308641957,136.28333333333316,0)"
                xlink:href="#z"/><use
                transform="matrix(0.13641975308641957,0,0,0.13641975308641957,147.06049382716031,0)"
                xlink:href="#A"/></g><path fill="#fff" d="M127-220V0H93v-220H8v-28h204v28h-85" id="B"/><path
                fill="#fff"
                d="M210-169c-67 3-38 105-44 169h-31v-121c0-29-5-50-35-48C34-165 62-65 56 0H25l-1-190h30c1 10-1 24 2 32 10-44 99-50 107 0 11-21 27-35 58-36 85-2 47 119 55 194h-31v-121c0-29-5-49-35-48"
                id="C"/>
            <g id="c"><use
                transform="matrix(0.13641975308641957,0,0,0.13641975308641957,0,0)"
                xlink:href="#B"/><use
                transform="matrix(0.13641975308641957,0,0,0.13641975308641957,28.10246913580243,0)"
                xlink:href="#z"/><use
                transform="matrix(0.13641975308641957,0,0,0.13641975308641957,38.87962962962958,0)"
                xlink:href="#C"/><use
                transform="matrix(0.13641975308641957,0,0,0.13641975308641957,79.66913580246903,0)"
                xlink:href="#w"/><use
                transform="matrix(0.13641975308641957,0,0,0.13641975308641957,106.95308641975292,0)"
                xlink:href="#y"/></g><path fill="#e5e5e5" d="M127-220V0H93v-220H8v-28h204v28h-85" id="D"/><path fill="#e5e5e5" d="M24-231v-30h32v30H24zM24 0v-190h32V0H24" id="E"/><path
                fill="#e5e5e5"
                d="M210-169c-67 3-38 105-44 169h-31v-121c0-29-5-50-35-48C34-165 62-65 56 0H25l-1-190h30c1 10-1 24 2 32 10-44 99-50 107 0 11-21 27-35 58-36 85-2 47 119 55 194h-31v-121c0-29-5-49-35-48"
                id="F"/><path
                fill="#e5e5e5"
                d="M100-194c63 0 86 42 84 106H49c0 40 14 67 53 68 26 1 43-12 49-29l28 8c-11 28-37 45-77 45C44 4 14-33 15-96c1-61 26-98 85-98zm52 81c6-60-76-77-97-28-3 7-6 17-6 28h103"
                id="G"/><path
                fill="#e5e5e5"
                d="M114-163C36-179 61-72 57 0H25l-1-190h30c1 12-1 29 2 39 6-27 23-49 58-41v29"
                id="H"/>
            <g id="d"><use
                transform="matrix(0.12407407407407395,0,0,0.12407407407407395,0,0)"
                xlink:href="#D"/><use
                transform="matrix(0.12407407407407395,0,0,0.12407407407407395,25.559259259259235,0)"
                xlink:href="#E"/><use
                transform="matrix(0.12407407407407395,0,0,0.12407407407407395,35.36111111111108,0)"
                xlink:href="#F"/><use
                transform="matrix(0.12407407407407395,0,0,0.12407407407407395,72.4592592592592,0)"
                xlink:href="#G"/><use
                transform="matrix(0.12407407407407395,0,0,0.12407407407407395,97.27407407407398,0)"
                xlink:href="#H"/></g><path
                fill="#e5e5e5"
                d="M185-189c-5-48-123-54-124 2 14 75 158 14 163 119 3 78-121 87-175 55-17-10-28-26-33-46l33-7c5 56 141 63 141-1 0-78-155-14-162-118-5-82 145-84 179-34 5 7 8 16 11 25"
                id="I"/><path
                fill="#e5e5e5"
                d="M96-169c-40 0-48 33-48 73s9 75 48 75c24 0 41-14 43-38l32 2c-6 37-31 61-74 61-59 0-76-41-82-99-10-93 101-131 147-64 4 7 5 14 7 22l-32 3c-4-21-16-35-41-35"
                id="J"/><path
                fill="#e5e5e5"
                d="M117-194c89-4 53 116 60 194h-32v-121c0-31-8-49-39-48C34-167 62-67 57 0H25l-1-190h30c1 10-1 24 2 32 11-22 29-35 61-36"
                id="K"/>
            <g id="e"><use
                transform="matrix(0.12407407407407395,0,0,0.12407407407407395,0,0)"
                xlink:href="#I"/><use
                transform="matrix(0.12407407407407395,0,0,0.12407407407407395,29.777777777777747,0)"
                xlink:href="#J"/><use
                transform="matrix(0.12407407407407395,0,0,0.12407407407407395,52.11111111111106,0)"
                xlink:href="#H"/><use
                transform="matrix(0.12407407407407395,0,0,0.12407407407407395,66.87592592592586,0)"
                xlink:href="#G"/><use
                transform="matrix(0.12407407407407395,0,0,0.12407407407407395,91.69074074074064,0)"
                xlink:href="#G"/><use
                transform="matrix(0.12407407407407395,0,0,0.12407407407407395,116.50555555555542,0)"
                xlink:href="#K"/></g><path fill="#e5e5e5" d="M33 0v-248h34V0H33" id="L"/><path
                fill="#e5e5e5"
                d="M115-194c55 1 70 41 70 98S169 2 115 4C84 4 66-9 55-30l1 105H24l-1-265h31l2 30c10-21 28-34 59-34zm-8 174c40 0 45-34 45-75s-6-73-45-74c-42 0-51 32-51 76 0 43 10 73 51 73"
                id="M"/><path
                fill="#e5e5e5"
                d="M84 4C-5 8 30-112 23-190h32v120c0 31 7 50 39 49 72-2 45-101 50-169h31l1 190h-30c-1-10 1-25-2-33-11 22-28 36-60 37"
                id="N"/><path
                fill="#e5e5e5"
                d="M59-47c-2 24 18 29 38 22v24C64 9 27 4 27-40v-127H5v-23h24l9-43h21v43h35v23H59v120"
                id="O"/><path
                fill="#e5e5e5"
                d="M135-143c-3-34-86-38-87 0 15 53 115 12 119 90S17 21 10-45l28-5c4 36 97 45 98 0-10-56-113-15-118-90-4-57 82-63 122-42 12 7 21 19 24 35"
                id="P"/>
            <g id="f"><use
                transform="matrix(0.12407407407407395,0,0,0.12407407407407395,0,0)"
                xlink:href="#L"/><use
                transform="matrix(0.12407407407407395,0,0,0.12407407407407395,12.407407407407394,0)"
                xlink:href="#K"/><use
                transform="matrix(0.12407407407407395,0,0,0.12407407407407395,37.222222222222186,0)"
                xlink:href="#M"/><use
                transform="matrix(0.12407407407407395,0,0,0.12407407407407395,62.037037037036974,0)"
                xlink:href="#N"/><use
                transform="matrix(0.12407407407407395,0,0,0.12407407407407395,86.85185185185176,0)"
                xlink:href="#O"/><use
                transform="matrix(0.12407407407407395,0,0,0.12407407407407395,99.25925925925915,0)"
                xlink:href="#P"/></g><path
                fill="#e5e5e5"
                d="M30-248c118-7 216 8 213 122C240-48 200 0 122 0H30v-248zM63-27c89 8 146-16 146-99s-60-101-146-95v194"
                id="Q"/><path fill="#e5e5e5" d="M108 0H70L1-190h34L89-25l56-165h34" id="R"/>
            <g id="g"><use
                transform="matrix(0.13024691358024676,0,0,0.13024691358024676,0,0)"
                xlink:href="#Q"/><use
                transform="matrix(0.13024691358024676,0,0,0.13024691358024676,33.73395061728391,0)"
                xlink:href="#G"/><use
                transform="matrix(0.13024691358024676,0,0,0.13024691358024676,59.78333333333326,0)"
                xlink:href="#R"/><use
                transform="matrix(0.13024691358024676,0,0,0.13024691358024676,83.22777777777767,0)"
                xlink:href="#E"/><use
                transform="matrix(0.13024691358024676,0,0,0.13024691358024676,93.51728395061717,0)"
                xlink:href="#J"/><use
                transform="matrix(0.13024691358024676,0,0,0.13024691358024676,116.96172839506158,0)"
                xlink:href="#G"/></g><path
                fill="#fff"
                d="M205 0l-28-72H64L36 0H1l101-248h38L239 0h-34zm-38-99l-47-123c-12 45-31 82-46 123h93"
                id="S"/><path
                fill="#fff"
                d="M59-47c-2 24 18 29 38 22v24C64 9 27 4 27-40v-127H5v-23h24l9-43h21v43h35v23H59v120"
                id="T"/><path
                fill="#fff"
                d="M100-194c62-1 85 37 85 99 1 63-27 99-86 99S16-35 15-95c0-66 28-99 85-99zM99-20c44 1 53-31 53-75 0-43-8-75-51-75s-53 32-53 75 10 74 51 75"
                id="U"/><path
                fill="#fff"
                d="M135-143c-3-34-86-38-87 0 15 53 115 12 119 90S17 21 10-45l28-5c4 36 97 45 98 0-10-56-113-15-118-90-4-57 82-63 122-42 12 7 21 19 24 35"
                id="V"/><path
                fill="#fff"
                d="M212-179c-10-28-35-45-73-45-59 0-87 40-87 99 0 60 29 101 89 101 43 0 62-24 78-52l27 14C228-24 195 4 139 4 59 4 22-46 18-125c-6-104 99-153 187-111 19 9 31 26 39 46"
                id="W"/><path fill="#fff" d="M24 0v-261h32V0H24" id="X"/>
            <g id="h"><use
                transform="matrix(0.09938271604938267,0,0,0.09938271604938267,0,0)"
                xlink:href="#S"/><use
                transform="matrix(0.09938271604938267,0,0,0.09938271604938267,23.85185185185184,0)"
                xlink:href="#A"/><use
                transform="matrix(0.09938271604938267,0,0,0.09938271604938267,41.74074074074072,0)"
                xlink:href="#T"/><use
                transform="matrix(0.09938271604938267,0,0,0.09938271604938267,51.67901234567898,0)"
                xlink:href="#z"/><use
                transform="matrix(0.09938271604938267,0,0,0.09938271604938267,59.530246913580214,0)"
                xlink:href="#U"/><use
                transform="matrix(0.09938271604938267,0,0,0.09938271604938267,79.40679012345674,0)"
                xlink:href="#x"/><use
                transform="matrix(0.09938271604938267,0,0,0.09938271604938267,99.28333333333327,0)"
                xlink:href="#V"/><use
                transform="matrix(0.09938271604938267,0,0,0.09938271604938267,117.17222222222215,0)"
                xlink:href="#W"/><use
                transform="matrix(0.09938271604938267,0,0,0.09938271604938267,142.91234567901228,0)"
                xlink:href="#z"/><use
                transform="matrix(0.09938271604938267,0,0,0.09938271604938267,150.7635802469135,0)"
                xlink:href="#y"/><use
                transform="matrix(0.09938271604938267,0,0,0.09938271604938267,162.59012345679005,0)"
                xlink:href="#A"/><use
                transform="matrix(0.09938271604938267,0,0,0.09938271604938267,180.47901234567894,0)"
                xlink:href="#X"/><use
                transform="matrix(0.09938271604938267,0,0,0.09938271604938267,188.33024691358017,0)"
                xlink:href="#w"/></g><path
                fill="#b8e692"
                d="M205 0l-28-72H64L36 0H1l101-248h38L239 0h-34zm-38-99l-47-123c-12 45-31 82-46 123h93"
                id="Y"/><path
                fill="#b8e692"
                d="M96-169c-40 0-48 33-48 73s9 75 48 75c24 0 41-14 43-38l32 2c-6 37-31 61-74 61-59 0-76-41-82-99-10-93 101-131 147-64 4 7 5 14 7 22l-32 3c-4-21-16-35-41-35"
                id="Z"/><path
                fill="#b8e692"
                d="M59-47c-2 24 18 29 38 22v24C64 9 27 4 27-40v-127H5v-23h24l9-43h21v43h35v23H59v120"
                id="aa"/><path fill="#b8e692" d="M24-231v-30h32v30H24zM24 0v-190h32V0H24" id="ab"/><path
                fill="#b8e692"
                d="M100-194c62-1 85 37 85 99 1 63-27 99-86 99S16-35 15-95c0-66 28-99 85-99zM99-20c44 1 53-31 53-75 0-43-8-75-51-75s-53 32-53 75 10 74 51 75"
                id="ac"/><path
                fill="#b8e692"
                d="M117-194c89-4 53 116 60 194h-32v-121c0-31-8-49-39-48C34-167 62-67 57 0H25l-1-190h30c1 10-1 24 2 32 11-22 29-35 61-36"
                id="ad"/><path
                fill="#b8e692"
                d="M160-131c35 5 61 23 61 61C221 17 115-2 30 0v-248c76 3 177-17 177 60 0 33-19 50-47 57zm-97-11c50-1 110 9 110-42 0-47-63-36-110-37v79zm0 115c55-2 124 14 124-45 0-56-70-42-124-44v89"
                id="ae"/><path
                fill="#b8e692"
                d="M84 4C-5 8 30-112 23-190h32v120c0 31 7 50 39 49 72-2 45-101 50-169h31l1 190h-30c-1-10 1-25-2-33-11 22-28 36-60 37"
                id="af"/>
            <g id="i"><use
                transform="matrix(0.11172839506172827,0,0,0.11172839506172827,0,0)"
                xlink:href="#Y"/><use
                transform="matrix(0.11172839506172827,0,0,0.11172839506172827,26.814814814814785,0)"
                xlink:href="#Z"/><use
                transform="matrix(0.11172839506172827,0,0,0.11172839506172827,46.925925925925874,0)"
                xlink:href="#aa"/><use
                transform="matrix(0.11172839506172827,0,0,0.11172839506172827,58.0987654320987,0)"
                xlink:href="#ab"/><use
                transform="matrix(0.11172839506172827,0,0,0.11172839506172827,66.92530864197523,0)"
                xlink:href="#ac"/><use
                transform="matrix(0.11172839506172827,0,0,0.11172839506172827,89.27098765432089,0)"
                xlink:href="#ad"/><use
                transform="matrix(0.11172839506172827,0,0,0.11172839506172827,111.61666666666655,0)"
                xlink:href="#ae"/><use
                transform="matrix(0.11172839506172827,0,0,0.11172839506172827,138.43148148148134,0)"
                xlink:href="#af"/><use
                transform="matrix(0.11172839506172827,0,0,0.11172839506172827,160.777160493827,0)"
                xlink:href="#aa"/><use
                transform="matrix(0.11172839506172827,0,0,0.11172839506172827,171.94999999999985,0)"
                xlink:href="#aa"/><use
                transform="matrix(0.11172839506172827,0,0,0.11172839506172827,183.12283950617268,0)"
                xlink:href="#ac"/><use
                transform="matrix(0.11172839506172827,0,0,0.11172839506172827,205.46851851851835,0)"
                xlink:href="#ad"/></g><path
                fill="#333"
                d="M30-248c87 1 191-15 191 75 0 78-77 80-158 76V0H30v-248zm33 125c57 0 124 11 124-50 0-59-68-47-124-48v98"
                id="ag"/><path
                fill="#333"
                d="M114-163C36-179 61-72 57 0H25l-1-190h30c1 12-1 29 2 39 6-27 23-49 58-41v29"
                id="ah"/><path
                fill="#333"
                d="M100-194c62-1 85 37 85 99 1 63-27 99-86 99S16-35 15-95c0-66 28-99 85-99zM99-20c44 1 53-31 53-75 0-43-8-75-51-75s-53 32-53 75 10 74 51 75"
                id="ai"/><path
                fill="#333"
                d="M177-190C167-65 218 103 67 71c-23-6-38-20-44-43l32-5c15 47 100 32 89-28v-30C133-14 115 1 83 1 29 1 15-40 15-95c0-56 16-97 71-98 29-1 48 16 59 35 1-10 0-23 2-32h30zM94-22c36 0 50-32 50-73 0-42-14-75-50-75-39 0-46 34-46 75s6 73 46 73"
                id="aj"/><path
                fill="#333"
                d="M100-194c63 0 86 42 84 106H49c0 40 14 67 53 68 26 1 43-12 49-29l28 8c-11 28-37 45-77 45C44 4 14-33 15-96c1-61 26-98 85-98zm52 81c6-60-76-77-97-28-3 7-6 17-6 28h103"
                id="ak"/><path
                fill="#333"
                d="M135-143c-3-34-86-38-87 0 15 53 115 12 119 90S17 21 10-45l28-5c4 36 97 45 98 0-10-56-113-15-118-90-4-57 82-63 122-42 12 7 21 19 24 35"
                id="al"/><path
                fill="#333"
                d="M160-131c35 5 61 23 61 61C221 17 115-2 30 0v-248c76 3 177-17 177 60 0 33-19 50-47 57zm-97-11c50-1 110 9 110-42 0-47-63-36-110-37v79zm0 115c55-2 124 14 124-45 0-56-70-42-124-44v89"
                id="am"/><path
                fill="#333"
                d="M141-36C126-15 110 5 73 4 37 3 15-17 15-53c-1-64 63-63 125-63 3-35-9-54-41-54-24 1-41 7-42 31l-33-3c5-37 33-52 76-52 45 0 72 20 72 64v82c-1 20 7 32 28 27v20c-31 9-61-2-59-35zM48-53c0 20 12 33 32 33 41-3 63-29 60-74-43 2-92-5-92 41"
                id="an"/>
            <g id="j"><use
                transform="matrix(0.09938271604938267,0,0,0.09938271604938267,0,0)"
                xlink:href="#ag"/><use
                transform="matrix(0.09938271604938267,0,0,0.09938271604938267,23.85185185185184,0)"
                xlink:href="#ah"/><use
                transform="matrix(0.09938271604938267,0,0,0.09938271604938267,35.67839506172838,0)"
                xlink:href="#ai"/><use
                transform="matrix(0.09938271604938267,0,0,0.09938271604938267,55.55493827160492,0)"
                xlink:href="#aj"/><use
                transform="matrix(0.09938271604938267,0,0,0.09938271604938267,75.43148148148144,0)"
                xlink:href="#ah"/><use
                transform="matrix(0.09938271604938267,0,0,0.09938271604938267,87.25802469135797,0)"
                xlink:href="#ak"/><use
                transform="matrix(0.09938271604938267,0,0,0.09938271604938267,107.1345679012345,0)"
                xlink:href="#al"/><use
                transform="matrix(0.09938271604938267,0,0,0.09938271604938267,125.02345679012338,0)"
                xlink:href="#al"/><use
                transform="matrix(0.09938271604938267,0,0,0.09938271604938267,142.91234567901228,0)"
                xlink:href="#am"/><use
                transform="matrix(0.09938271604938267,0,0,0.09938271604938267,166.76419753086412,0)"
                xlink:href="#an"/><use
                transform="matrix(0.09938271604938267,0,0,0.09938271604938267,186.64074074074065,0)"
                xlink:href="#ah"/></g><path fill="#333" d="M33 0v-248h34V0H33" id="ao"/><path
                fill="#333"
                d="M117-194c89-4 53 116 60 194h-32v-121c0-31-8-49-39-48C34-167 62-67 57 0H25l-1-190h30c1 10-1 24 2 32 11-22 29-35 61-36"
                id="ap"/><path
                fill="#333"
                d="M115-194c55 1 70 41 70 98S169 2 115 4C84 4 66-9 55-30l1 105H24l-1-265h31l2 30c10-21 28-34 59-34zm-8 174c40 0 45-34 45-75s-6-73-45-74c-42 0-51 32-51 76 0 43 10 73 51 73"
                id="aq"/><path
                fill="#333"
                d="M84 4C-5 8 30-112 23-190h32v120c0 31 7 50 39 49 72-2 45-101 50-169h31l1 190h-30c-1-10 1-25-2-33-11 22-28 36-60 37"
                id="ar"/><path
                fill="#333"
                d="M59-47c-2 24 18 29 38 22v24C64 9 27 4 27-40v-127H5v-23h24l9-43h21v43h35v23H59v120"
                id="as"/>
            <g id="k"><use
                transform="matrix(0.11172839506172827,0,0,0.11172839506172827,0,0)"
                xlink:href="#ao"/><use
                transform="matrix(0.11172839506172827,0,0,0.11172839506172827,11.172839506172828,0)"
                xlink:href="#ap"/><use
                transform="matrix(0.11172839506172827,0,0,0.11172839506172827,33.51851851851848,0)"
                xlink:href="#aq"/><use
                transform="matrix(0.11172839506172827,0,0,0.11172839506172827,55.86419753086414,0)"
                xlink:href="#ar"/><use
                transform="matrix(0.11172839506172827,0,0,0.11172839506172827,78.20987654320979,0)"
                xlink:href="#as"/></g><path
                fill="#f5f2f2"
                d="M143 4C61 4 22-44 18-125c-5-107 100-154 193-111 17 8 29 25 37 43l-32 9c-13-25-37-40-76-40-61 0-88 39-88 99 0 61 29 100 91 101 35 0 62-11 79-27v-45h-74v-28h105v86C228-13 192 4 143 4"
                id="at"/><path
                fill="#f5f2f2"
                d="M100-194c63 0 86 42 84 106H49c0 40 14 67 53 68 26 1 43-12 49-29l28 8c-11 28-37 45-77 45C44 4 14-33 15-96c1-61 26-98 85-98zm52 81c6-60-76-77-97-28-3 7-6 17-6 28h103"
                id="au"/><path
                fill="#f5f2f2"
                d="M117-194c89-4 53 116 60 194h-32v-121c0-31-8-49-39-48C34-167 62-67 57 0H25l-1-190h30c1 10-1 24 2 32 11-22 29-35 61-36"
                id="av"/><path
                fill="#f5f2f2"
                d="M114-163C36-179 61-72 57 0H25l-1-190h30c1 12-1 29 2 39 6-27 23-49 58-41v29"
                id="aw"/><path fill="#f5f2f2" d="M24-231v-30h32v30H24zM24 0v-190h32V0H24" id="ax"/><path
                fill="#f5f2f2"
                d="M96-169c-40 0-48 33-48 73s9 75 48 75c24 0 41-14 43-38l32 2c-6 37-31 61-74 61-59 0-76-41-82-99-10-93 101-131 147-64 4 7 5 14 7 22l-32 3c-4-21-16-35-41-35"
                id="ay"/>
            <g id="l"><use
                transform="matrix(0.11172839506172831,0,0,0.11172839506172831,0,0)"
                xlink:href="#at"/><use
                transform="matrix(0.11172839506172831,0,0,0.11172839506172831,31.283950617283928,0)"
                xlink:href="#au"/><use
                transform="matrix(0.11172839506172831,0,0,0.11172839506172831,53.62962962962959,0)"
                xlink:href="#av"/><use
                transform="matrix(0.11172839506172831,0,0,0.11172839506172831,75.97530864197526,0)"
                xlink:href="#au"/><use
                transform="matrix(0.11172839506172831,0,0,0.11172839506172831,98.32098765432093,0)"
                xlink:href="#aw"/><use
                transform="matrix(0.11172839506172831,0,0,0.11172839506172831,111.6166666666666,0)"
                xlink:href="#ax"/><use
                transform="matrix(0.11172839506172831,0,0,0.11172839506172831,120.44320987654315,0)"
                xlink:href="#ay"/></g><path
                fill="#f5f2f2"
                d="M160-131c35 5 61 23 61 61C221 17 115-2 30 0v-248c76 3 177-17 177 60 0 33-19 50-47 57zm-97-11c50-1 110 9 110-42 0-47-63-36-110-37v79zm0 115c55-2 124 14 124-45 0-56-70-42-124-44v89"
                id="az"/><path
                fill="#f5f2f2"
                d="M84 4C-5 8 30-112 23-190h32v120c0 31 7 50 39 49 72-2 45-101 50-169h31l1 190h-30c-1-10 1-25-2-33-11 22-28 36-60 37"
                id="aA"/><path
                fill="#f5f2f2"
                d="M59-47c-2 24 18 29 38 22v24C64 9 27 4 27-40v-127H5v-23h24l9-43h21v43h35v23H59v120"
                id="aB"/><path
                fill="#f5f2f2"
                d="M100-194c62-1 85 37 85 99 1 63-27 99-86 99S16-35 15-95c0-66 28-99 85-99zM99-20c44 1 53-31 53-75 0-43-8-75-51-75s-53 32-53 75 10 74 51 75"
                id="aC"/>
            <g id="m"><use
                transform="matrix(0.11172839506172831,0,0,0.11172839506172831,0,0)"
                xlink:href="#az"/><use
                transform="matrix(0.11172839506172831,0,0,0.11172839506172831,26.814814814814795,0)"
                xlink:href="#aA"/><use
                transform="matrix(0.11172839506172831,0,0,0.11172839506172831,49.16049382716046,0)"
                xlink:href="#aB"/><use
                transform="matrix(0.11172839506172831,0,0,0.11172839506172831,60.333333333333286,0)"
                xlink:href="#aB"/><use
                transform="matrix(0.11172839506172831,0,0,0.11172839506172831,71.50617283950612,0)"
                xlink:href="#aC"/><use
                transform="matrix(0.11172839506172831,0,0,0.11172839506172831,93.85185185185179,0)"
                xlink:href="#av"/></g>
        </defs>
    </g>
</svg>