<?xml version="1.0" encoding="UTF-8"?>
<svg
    xmlns="http://www.w3.org/2000/svg"
    xmlns:xlink="http://www.w3.org/1999/xlink"
    width="224.87999"
    zoomAndPan="magnify"
    viewBox="0 0 224.87999 37.5"
    height="37.5"
    preserveAspectRatio="xMidYMid meet"
    version="1.0">
    <defs>
        <clipPath id="clip-0"><path
            d="M 2 9.761719 L 223 9.761719 L 223 27.523438 L 2 27.523438 Z M 2 9.761719 "
            clip-rule="nonzero"/></clipPath>
    </defs>
    <g clip-path="url(#clip-0)"><path
        fill="rgb(76.078796%, 74.508667%, 74.508667%)"
        d="M 204.914062 27.523438 L 201.496094 19.328125 L 199.453125 22.597656 L 196.308594 20.394531 L 194.648438 21.816406 L 192.914062 20.265625 L 185.402344 21.191406 L 178.820312 20.410156 L 176.640625 21.246094 L 174.167969 19.976562 L 171.628906 23.132812 L 170.171875 16.445312 L 168.429688 27.523438 L 165.011719 19.328125 L 162.964844 22.597656 L 159.824219 20.394531 L 158.164062 21.816406 L 156.429688 20.265625 L 148.921875 21.191406 L 142.335938 20.410156 L 140.15625 21.246094 L 137.679688 19.976562 L 135.144531 23.132812 L 133.6875 16.445312 L 131.945312 27.523438 L 128.527344 19.328125 L 126.480469 22.597656 L 123.339844 20.394531 L 121.683594 21.816406 L 119.945312 20.265625 L 112.4375 21.191406 L 105.851562 20.410156 L 103.671875 21.246094 L 101.199219 19.976562 L 98.660156 23.132812 L 97.203125 16.445312 L 95.460938 27.523438 L 92.042969 19.328125 L 90 22.597656 L 86.855469 20.394531 L 85.195312 21.816406 L 83.460938 20.265625 L 75.953125 21.191406 L 69.367188 20.410156 L 67.1875 21.246094 L 64.714844 19.976562 L 62.175781 23.132812 L 60.71875 16.445312 L 58.976562 27.523438 L 55.558594 19.328125 L 53.515625 22.597656 L 50.371094 20.394531 L 48.710938 21.816406 L 46.976562 20.265625 L 39.46875 21.191406 L 32.882812 20.410156 L 30.703125 21.246094 L 28.230469 19.976562 L 25.691406 23.132812 L 24.234375 16.445312 L 22.496094 27.523438 L 19.074219 19.328125 L 17.027344 22.597656 L 13.886719 20.394531 L 12.230469 21.816406 L 10.492188 20.265625 L 3.058594 21.183594 C 2.726562 21.21875 2.414062 20.980469 2.375 20.640625 C 2.332031 20.296875 2.570312 19.988281 2.910156 19.945312 L 10.890625 18.957031 L 12.246094 20.167969 L 13.8125 18.828125 L 16.675781 20.835938 L 19.292969 16.652344 L 21.957031 23.035156 L 24.039062 9.773438 L 26.34375 20.347656 L 27.898438 18.410156 L 30.777344 19.882812 L 32.730469 19.136719 L 39.464844 19.9375 L 47.375 18.957031 L 48.730469 20.167969 L 50.296875 18.828125 L 53.160156 20.835938 L 55.777344 16.652344 L 58.441406 23.035156 L 60.523438 9.773438 L 62.828125 20.347656 L 64.382812 18.410156 L 67.261719 19.882812 L 69.214844 19.136719 L 75.949219 19.9375 L 83.859375 18.957031 L 85.214844 20.171875 L 86.78125 18.828125 L 89.644531 20.835938 L 92.261719 16.652344 L 94.921875 23.035156 L 97.007812 9.773438 L 99.3125 20.347656 L 100.871094 18.410156 L 103.742188 19.882812 L 105.699219 19.136719 L 112.433594 19.9375 L 120.339844 18.957031 L 121.699219 20.171875 L 123.265625 18.828125 L 126.128906 20.835938 L 128.746094 16.652344 L 131.410156 23.035156 L 133.492188 9.773438 L 135.796875 20.347656 L 137.351562 18.410156 L 140.230469 19.882812 L 142.183594 19.136719 L 148.917969 19.9375 L 156.828125 18.957031 L 158.183594 20.171875 L 159.75 18.828125 L 162.613281 20.835938 L 165.230469 16.652344 L 167.894531 23.035156 L 169.976562 9.773438 L 172.28125 20.347656 L 173.835938 18.410156 L 176.714844 19.882812 L 178.667969 19.136719 L 185.402344 19.9375 L 193.3125 18.957031 L 194.664062 20.171875 L 196.234375 18.828125 L 199.097656 20.835938 L 201.714844 16.652344 L 204.375 23.035156 L 206.460938 9.773438 L 208.765625 20.347656 L 210.320312 18.410156 L 213.195312 19.882812 L 215.152344 19.136719 L 221.957031 19.945312 C 222.296875 19.984375 222.535156 20.292969 222.5 20.636719 C 222.457031 20.980469 222.148438 21.222656 221.816406 21.183594 L 215.304688 20.410156 L 213.125 21.246094 L 210.648438 19.976562 L 208.113281 23.132812 L 206.65625 16.445312 L 204.914062 27.523438 "
        fill-opacity="1"
        fill-rule="nonzero"/></g>
</svg>