<?xml version="1.0" encoding="UTF-8"?><svg xmlns="http://www.w3.org/2000/svg" xmlns:xlink="http://www.w3.org/1999/xlink" width="180" zoomAndPan="magnify" viewBox="0 0 180 179.999997" height="179.999997" preserveAspectRatio="xMidYMid meet" version="1.0"><path fill="rgb(10.978699%, 56.858826%, 94.898987%)" d="M 178.039062 96.644531 C 177.054688 96.570312 176.316406 95.722656 176.386719 94.761719 C 176.445312 93.796875 177.242188 93.03125 178.238281 93.066406 C 179.214844 93.09375 180.023438 93.941406 179.960938 94.953125 C 179.886719 95.964844 179.023438 96.722656 178.039062 96.644531 Z M 178.039062 96.644531 " fill-opacity="1" fill-rule="nonzero"/><path fill="rgb(10.978699%, 56.858826%, 94.898987%)" d="M 175.921875 107.609375 L 176.566406 103.972656 C 176.691406 103.371094 176.753906 102.757812 176.832031 102.144531 L 177.066406 100.316406 C 177.109375 99.976562 177.425781 99.730469 177.765625 99.769531 C 178.109375 99.804688 178.347656 100.117188 178.304688 100.460938 L 178.066406 102.320312 C 177.988281 102.9375 177.921875 103.558594 177.796875 104.171875 L 177.140625 107.855469 C 177.0625 108.199219 176.726562 108.414062 176.390625 108.339844 C 176.054688 108.269531 175.84375 107.941406 175.921875 107.609375 Z M 175.921875 107.609375 " fill-opacity="1" fill-rule="nonzero"/><path fill="rgb(10.978699%, 56.858826%, 94.898987%)" d="M 174.75 114.808594 C 173.804688 114.527344 173.25 113.542969 173.511719 112.613281 C 173.644531 112.144531 173.96875 111.777344 174.351562 111.542969 C 174.738281 111.3125 175.214844 111.222656 175.695312 111.34375 C 176.171875 111.460938 176.558594 111.765625 176.800781 112.167969 C 177.042969 112.570312 177.101562 113.054688 176.96875 113.542969 C 176.691406 114.523438 175.699219 115.085938 174.75 114.808594 Z M 174.75 114.808594 " fill-opacity="1" fill-rule="nonzero"/><path fill="rgb(10.978699%, 56.858826%, 94.898987%)" d="M 170.363281 125.074219 L 170.746094 124.234375 C 170.871094 123.953125 170.976562 123.660156 171.089844 123.378906 L 171.769531 121.660156 C 171.992188 121.089844 172.230469 120.519531 172.4375 119.941406 L 173.027344 118.191406 C 173.140625 117.867188 173.492188 117.691406 173.820312 117.800781 C 174.144531 117.910156 174.320312 118.265625 174.207031 118.59375 L 173.605469 120.367188 C 173.398438 120.953125 173.152344 121.527344 172.929688 122.109375 L 172.242188 123.851562 C 172.125 124.140625 172.019531 124.433594 171.894531 124.71875 L 171.507812 125.570312 C 171.363281 125.886719 170.996094 126.03125 170.679688 125.890625 C 170.363281 125.75 170.226562 125.382812 170.363281 125.074219 Z M 170.363281 125.074219 " fill-opacity="1" fill-rule="nonzero"/><path fill="rgb(10.978699%, 56.858826%, 94.898987%)" d="M 167.753906 131.886719 C 166.886719 131.414062 166.539062 130.332031 166.980469 129.472656 C 167.421875 128.613281 168.496094 128.261719 169.386719 128.691406 C 170.273438 129.121094 170.621094 130.203125 170.160156 131.105469 C 169.699219 132.007812 168.621094 132.355469 167.753906 131.886719 Z M 167.753906 131.886719 " fill-opacity="1" fill-rule="nonzero"/><path fill="rgb(10.978699%, 56.858826%, 94.898987%)" d="M 161.296875 141 C 162.007812 139.992188 162.746094 139.011719 163.390625 137.960938 L 164.386719 136.40625 C 164.714844 135.886719 165.058594 135.371094 165.351562 134.832031 C 165.523438 134.535156 165.902344 134.4375 166.199219 134.609375 C 166.496094 134.78125 166.59375 135.171875 166.421875 135.46875 C 166.121094 136.015625 165.777344 136.539062 165.441406 137.0625 L 164.429688 138.640625 C 163.777344 139.703125 163.023438 140.703125 162.308594 141.722656 C 162.109375 142.007812 161.71875 142.070312 161.4375 141.871094 C 161.160156 141.667969 161.101562 141.28125 161.296875 141 Z M 161.296875 141 " fill-opacity="1" fill-rule="nonzero"/><path fill="rgb(10.978699%, 56.858826%, 94.898987%)" d="M 157.316406 147.113281 C 156.9375 146.792969 156.730469 146.351562 156.691406 145.902344 C 156.648438 145.453125 156.789062 145 157.085938 144.613281 C 157.683594 143.847656 158.800781 143.726562 159.578125 144.332031 C 160.359375 144.933594 160.480469 146.074219 159.855469 146.871094 C 159.550781 147.273438 159.089844 147.484375 158.625 147.53125 C 158.164062 147.570312 157.695312 147.433594 157.316406 147.113281 Z M 157.316406 147.113281 " fill-opacity="1" fill-rule="nonzero"/><path fill="rgb(10.978699%, 56.858826%, 94.898987%)" d="M 149.136719 154.714844 L 151.8125 152.167969 C 152.679688 151.296875 153.511719 150.390625 154.367188 149.503906 C 154.605469 149.257812 155.003906 149.242188 155.257812 149.476562 C 155.511719 149.707031 155.523438 150.097656 155.28125 150.351562 C 154.417969 151.25 153.570312 152.167969 152.6875 153.046875 L 149.980469 155.632812 C 149.730469 155.875 149.320312 155.839844 149.09375 155.589844 C 148.859375 155.332031 148.898438 154.957031 149.136719 154.714844 Z M 149.136719 154.714844 " fill-opacity="1" fill-rule="nonzero"/><path fill="rgb(10.978699%, 56.858826%, 94.898987%)" d="M 143.96875 159.859375 C 143.367188 159.074219 143.496094 157.957031 144.253906 157.359375 C 145.023438 156.773438 146.125 156.859375 146.765625 157.613281 C 147.402344 158.367188 147.308594 159.527344 146.5 160.144531 C 145.703125 160.769531 144.570312 160.644531 143.96875 159.859375 Z M 143.96875 159.859375 " fill-opacity="1" fill-rule="nonzero"/><path fill="rgb(10.978699%, 56.858826%, 94.898987%)" d="M 134.386719 165.589844 C 135.464844 165 136.488281 164.308594 137.523438 163.652344 L 139.078125 162.65625 L 140.582031 161.585938 C 140.863281 161.386719 141.25 161.453125 141.453125 161.734375 C 141.652344 162.015625 141.585938 162.402344 141.300781 162.605469 L 139.777344 163.6875 L 138.199219 164.699219 C 137.144531 165.367188 136.113281 166.066406 135.015625 166.667969 C 134.714844 166.839844 134.328125 166.738281 134.15625 166.441406 C 133.988281 166.140625 134.089844 165.761719 134.386719 165.589844 Z M 134.386719 165.589844 " fill-opacity="1" fill-rule="nonzero"/><path fill="rgb(10.978699%, 56.858826%, 94.898987%)" d="M 128.277344 169.582031 C 127.851562 168.691406 128.207031 167.609375 129.066406 167.171875 C 129.925781 166.726562 131.003906 167.078125 131.472656 167.945312 C 131.941406 168.816406 131.585938 169.898438 130.683594 170.363281 C 129.777344 170.820312 128.703125 170.476562 128.277344 169.582031 Z M 128.277344 169.582031 " fill-opacity="1" fill-rule="nonzero"/><path fill="rgb(10.978699%, 56.858826%, 94.898987%)" d="M 117.699219 173.167969 C 120.046875 172.417969 122.332031 171.5 124.601562 170.558594 C 124.914062 170.417969 125.277344 170.558594 125.417969 170.875 C 125.558594 171.191406 125.410156 171.5625 125.09375 171.707031 C 122.789062 172.660156 120.46875 173.59375 118.09375 174.355469 C 117.761719 174.464844 117.410156 174.289062 117.304688 173.960938 C 117.199219 173.632812 117.375 173.277344 117.699219 173.167969 Z M 117.699219 173.167969 " fill-opacity="1" fill-rule="nonzero"/><path fill="rgb(10.978699%, 56.858826%, 94.898987%)" d="M 110.890625 175.777344 C 110.773438 175.296875 110.863281 174.816406 111.09375 174.429688 C 111.328125 174.046875 111.707031 173.757812 112.171875 173.617188 C 113.105469 173.351562 114.082031 173.910156 114.355469 174.855469 C 114.632812 175.804688 114.066406 176.796875 113.085938 177.074219 C 112.601562 177.222656 112.105469 177.125 111.707031 176.882812 C 111.304688 176.644531 111.003906 176.253906 110.890625 175.777344 Z M 110.890625 175.777344 " fill-opacity="1" fill-rule="nonzero"/><path fill="rgb(10.978699%, 56.858826%, 94.898987%)" d="M 99.800781 177.101562 L 103.464844 176.628906 L 107.097656 175.980469 C 107.433594 175.921875 107.761719 176.148438 107.835938 176.480469 C 107.902344 176.820312 107.683594 177.144531 107.339844 177.203125 L 103.652344 177.863281 L 99.941406 178.335938 C 99.59375 178.382812 99.285156 178.140625 99.25 177.796875 C 99.214844 177.457031 99.460938 177.144531 99.800781 177.101562 Z M 99.800781 177.101562 " fill-opacity="1" fill-rule="nonzero"/><path fill="rgb(10.978699%, 56.858826%, 94.898987%)" d="M 92.59375 178.214844 C 92.570312 177.230469 93.335938 176.410156 94.300781 176.382812 C 95.261719 176.328125 96.105469 177.054688 96.175781 178.042969 C 96.25 179.023438 95.488281 179.898438 94.476562 179.957031 C 93.460938 179.980469 92.621094 179.203125 92.59375 178.214844 Z M 92.59375 178.214844 " fill-opacity="1" fill-rule="nonzero"/><path fill="rgb(10.978699%, 56.858826%, 94.898987%)" d="M 81.46875 177.234375 L 85.148438 177.515625 C 86.378906 177.582031 87.609375 177.585938 88.839844 177.625 C 89.183594 177.632812 89.460938 177.921875 89.457031 178.265625 C 89.457031 178.609375 89.171875 178.882812 88.824219 178.875 C 87.574219 178.835938 86.328125 178.832031 85.082031 178.761719 L 81.347656 178.476562 C 81 178.457031 80.75 178.144531 80.785156 177.800781 C 80.820312 177.457031 81.128906 177.214844 81.46875 177.234375 Z M 81.46875 177.234375 " fill-opacity="1" fill-rule="nonzero"/><path fill="rgb(10.978699%, 56.858826%, 94.898987%)" d="M 74.1875 176.835938 C 74.367188 175.867188 75.285156 175.214844 76.238281 175.386719 C 76.476562 175.425781 76.695312 175.523438 76.890625 175.644531 C 77.082031 175.757812 77.253906 175.914062 77.390625 176.09375 C 77.660156 176.453125 77.796875 176.921875 77.726562 177.410156 C 77.660156 177.898438 77.398438 178.316406 77.027344 178.59375 C 76.839844 178.734375 76.625 178.835938 76.394531 178.898438 C 76.164062 178.957031 75.917969 178.960938 75.667969 178.917969 C 74.671875 178.742188 74.007812 177.808594 74.1875 176.835938 Z M 74.1875 176.835938 " fill-opacity="1" fill-rule="nonzero"/><path fill="rgb(10.978699%, 56.858826%, 94.898987%)" d="M 63.511719 173.566406 C 65.871094 174.277344 68.234375 174.964844 70.640625 175.480469 C 70.976562 175.558594 71.1875 175.894531 71.113281 176.230469 C 71.039062 176.566406 70.703125 176.777344 70.363281 176.695312 C 67.921875 176.179688 65.523438 175.472656 63.136719 174.757812 C 62.804688 174.644531 62.625 174.289062 62.730469 173.960938 C 62.839844 173.636719 63.1875 173.460938 63.511719 173.566406 Z M 63.511719 173.566406 " fill-opacity="1" fill-rule="nonzero"/><path fill="rgb(10.978699%, 56.858826%, 94.898987%)" d="M 56.472656 171.664062 C 56.847656 170.75 57.886719 170.300781 58.789062 170.652344 C 59.6875 171.003906 60.144531 172.054688 59.8125 172.96875 C 59.476562 173.914062 58.441406 174.359375 57.496094 173.988281 C 56.550781 173.617188 56.089844 172.578125 56.472656 171.664062 Z M 56.472656 171.664062 " fill-opacity="1" fill-rule="nonzero"/><path fill="rgb(10.978699%, 56.858826%, 94.898987%)" d="M 46.726562 166.210938 C 47.261719 166.515625 47.789062 166.828125 48.328125 167.125 L 49.96875 167.964844 L 51.613281 168.808594 C 51.882812 168.949219 52.164062 169.085938 52.445312 169.207031 L 53.289062 169.585938 C 53.601562 169.726562 53.738281 170.097656 53.597656 170.410156 C 53.457031 170.726562 53.082031 170.863281 52.765625 170.722656 L 51.914062 170.335938 C 51.625 170.210938 51.34375 170.078125 51.070312 169.929688 L 49.40625 169.078125 L 47.738281 168.222656 C 47.191406 167.921875 46.65625 167.605469 46.113281 167.296875 C 45.8125 167.125 45.707031 166.742188 45.878906 166.441406 C 46.046875 166.144531 46.429688 166.039062 46.726562 166.210938 Z M 46.726562 166.210938 " fill-opacity="1" fill-rule="nonzero"/><path fill="rgb(10.978699%, 56.858826%, 94.898987%)" d="M 40.226562 162.898438 C 40.507812 162.492188 40.921875 162.238281 41.363281 162.15625 C 41.8125 162.058594 42.296875 162.128906 42.703125 162.390625 C 43.515625 162.914062 43.753906 164.019531 43.234375 164.855469 C 42.714844 165.695312 41.597656 165.933594 40.746094 165.386719 C 40.320312 165.113281 40.042969 164.699219 39.949219 164.253906 C 39.859375 163.792969 39.945312 163.304688 40.226562 162.898438 Z M 40.226562 162.898438 " fill-opacity="1" fill-rule="nonzero"/><path fill="rgb(10.978699%, 56.858826%, 94.898987%)" d="M 31.828125 155.539062 L 33.222656 156.746094 C 33.695312 157.144531 34.140625 157.566406 34.632812 157.9375 L 37.535156 160.21875 C 37.8125 160.421875 37.875 160.804688 37.671875 161.082031 C 37.46875 161.359375 37.070312 161.421875 36.792969 161.21875 L 33.847656 158.90625 C 33.347656 158.53125 32.894531 158.101562 32.421875 157.695312 L 31.007812 156.46875 C 30.742188 156.242188 30.71875 155.851562 30.949219 155.597656 C 31.171875 155.339844 31.566406 155.316406 31.828125 155.539062 Z M 31.828125 155.539062 " fill-opacity="1" fill-rule="nonzero"/><path fill="rgb(10.978699%, 56.858826%, 94.898987%)" d="M 26.171875 150.9375 C 26.886719 150.257812 28.007812 150.273438 28.679688 150.972656 C 29.363281 151.65625 29.386719 152.765625 28.699219 153.480469 C 28.019531 154.1875 26.859375 154.210938 26.140625 153.496094 C 25.441406 152.761719 25.449219 151.617188 26.171875 150.9375 Z M 26.171875 150.9375 " fill-opacity="1" fill-rule="nonzero"/><path fill="rgb(10.978699%, 56.858826%, 94.898987%)" d="M 19.457031 142.011719 C 20.941406 143.972656 22.453125 145.914062 24.09375 147.75 C 24.316406 148.007812 24.292969 148.402344 24.039062 148.632812 C 23.78125 148.863281 23.386719 148.835938 23.160156 148.574219 C 21.492188 146.710938 19.960938 144.742188 18.453125 142.75 C 18.25 142.46875 18.3125 142.074219 18.59375 141.871094 C 18.875 141.667969 19.257812 141.734375 19.457031 142.011719 Z M 19.457031 142.011719 " fill-opacity="1" fill-rule="nonzero"/><path fill="rgb(10.978699%, 56.858826%, 94.898987%)" d="M 14.871094 136.339844 C 15.710938 135.820312 16.820312 136.066406 17.339844 136.878906 C 17.863281 137.691406 17.625 138.804688 16.808594 139.363281 C 15.992188 139.921875 14.886719 139.679688 14.335938 138.824219 C 13.789062 137.964844 14.027344 136.855469 14.871094 136.339844 Z M 14.871094 136.339844 " fill-opacity="1" fill-rule="nonzero"/><path fill="rgb(10.978699%, 56.858826%, 94.898987%)" d="M 10.183594 126.203125 L 10.941406 127.886719 C 11.210938 128.4375 11.5 128.984375 11.777344 129.53125 C 12.34375 130.621094 12.871094 131.734375 13.511719 132.789062 C 13.679688 133.085938 13.578125 133.464844 13.28125 133.632812 C 12.980469 133.808594 12.597656 133.699219 12.421875 133.398438 C 11.777344 132.328125 11.242188 131.199219 10.667969 130.089844 C 10.386719 129.53125 10.09375 128.984375 9.820312 128.421875 L 9.046875 126.714844 C 8.90625 126.398438 9.046875 126.027344 9.359375 125.886719 C 9.671875 125.753906 10.042969 125.890625 10.183594 126.203125 Z M 10.183594 126.203125 " fill-opacity="1" fill-rule="nonzero"/><path fill="rgb(10.978699%, 56.858826%, 94.898987%)" d="M 6.863281 119.707031 C 7.328125 119.542969 7.816406 119.582031 8.222656 119.773438 C 8.632812 119.960938 8.988281 120.296875 9.164062 120.75 C 9.519531 121.648438 9.066406 122.683594 8.148438 123.058594 C 7.234375 123.429688 6.191406 122.96875 5.816406 122.023438 C 5.632812 121.554688 5.644531 121.058594 5.84375 120.640625 C 6.042969 120.214844 6.402344 119.871094 6.863281 119.707031 Z M 6.863281 119.707031 " fill-opacity="1" fill-rule="nonzero"/><path fill="rgb(10.978699%, 56.858826%, 94.898987%)" d="M 4.398438 108.816406 L 4.808594 110.617188 C 4.953125 111.210938 5.070312 111.820312 5.253906 112.40625 L 6.261719 115.957031 C 6.359375 116.285156 6.191406 116.632812 5.859375 116.734375 C 5.535156 116.839844 5.171875 116.660156 5.070312 116.324219 L 4.046875 112.722656 C 3.863281 112.125 3.75 111.511719 3.601562 110.90625 L 3.179688 109.082031 C 3.101562 108.746094 3.3125 108.410156 3.648438 108.339844 C 3.984375 108.269531 4.316406 108.484375 4.398438 108.816406 Z M 4.398438 108.816406 " fill-opacity="1" fill-rule="nonzero"/><path fill="rgb(10.978699%, 56.858826%, 94.898987%)" d="M 2.527344 101.769531 C 3.507812 101.644531 4.394531 102.320312 4.527344 103.277344 C 4.695312 104.230469 4.046875 105.140625 3.074219 105.316406 C 2.097656 105.492188 1.164062 104.820312 0.988281 103.824219 C 0.851562 102.816406 1.550781 101.894531 2.527344 101.769531 Z M 2.527344 101.769531 " fill-opacity="1" fill-rule="nonzero"/><path fill="rgb(10.978699%, 56.858826%, 94.898987%)" d="M 2.359375 90.605469 L 2.453125 94.296875 C 2.527344 95.523438 2.632812 96.75 2.722656 97.976562 C 2.75 98.316406 2.492188 98.625 2.152344 98.65625 C 1.808594 98.6875 1.511719 98.4375 1.480469 98.089844 C 1.390625 96.84375 1.285156 95.597656 1.207031 94.351562 L 1.117188 90.613281 C 1.109375 90.261719 1.378906 89.980469 1.722656 89.980469 C 2.070312 89.980469 2.351562 90.257812 2.359375 90.605469 Z M 2.359375 90.605469 " fill-opacity="1" fill-rule="nonzero"/><path fill="rgb(10.978699%, 56.858826%, 94.898987%)" d="M 1.996094 83.320312 C 2.984375 83.394531 3.71875 84.238281 3.648438 85.203125 C 3.589844 86.167969 2.796875 86.929688 1.800781 86.898438 C 0.820312 86.871094 0.015625 86.019531 0.0742188 85.011719 C 0.152344 84 1.011719 83.238281 1.996094 83.320312 Z M 1.996094 83.320312 " fill-opacity="1" fill-rule="nonzero"/><path fill="rgb(10.978699%, 56.858826%, 94.898987%)" d="M 4.117188 72.355469 L 3.46875 75.988281 C 3.347656 76.59375 3.28125 77.207031 3.203125 77.816406 L 2.96875 79.648438 C 2.925781 79.988281 2.613281 80.234375 2.269531 80.195312 C 1.929688 80.160156 1.6875 79.847656 1.730469 79.5 L 1.96875 77.644531 C 2.046875 77.027344 2.117188 76.402344 2.238281 75.792969 L 2.894531 72.109375 C 2.972656 71.765625 3.308594 71.550781 3.644531 71.621094 C 3.984375 71.695312 4.191406 72.023438 4.117188 72.355469 Z M 4.117188 72.355469 " fill-opacity="1" fill-rule="nonzero"/><path fill="rgb(10.978699%, 56.858826%, 94.898987%)" d="M 5.285156 65.15625 C 6.230469 65.4375 6.785156 66.417969 6.523438 67.351562 C 6.394531 67.820312 6.066406 68.1875 5.683594 68.421875 C 5.300781 68.652344 4.820312 68.742188 4.34375 68.621094 C 3.863281 68.503906 3.476562 68.195312 3.234375 67.796875 C 2.992188 67.394531 2.9375 66.910156 3.070312 66.417969 C 3.347656 65.441406 4.335938 64.875 5.285156 65.15625 Z M 5.285156 65.15625 " fill-opacity="1" fill-rule="nonzero"/><path fill="rgb(10.978699%, 56.858826%, 94.898987%)" d="M 9.671875 54.886719 L 9.289062 55.730469 C 9.164062 56.011719 9.058594 56.300781 8.945312 56.585938 L 8.269531 58.304688 C 8.042969 58.875 7.808594 59.445312 7.597656 60.023438 L 7.007812 61.769531 C 6.898438 62.09375 6.542969 62.269531 6.21875 62.164062 C 5.890625 62.054688 5.71875 61.699219 5.828125 61.371094 L 6.429688 59.597656 C 6.636719 59.011719 6.882812 58.4375 7.105469 57.851562 L 7.792969 56.113281 C 7.910156 55.824219 8.015625 55.527344 8.140625 55.246094 L 8.527344 54.390625 C 8.671875 54.074219 9.042969 53.933594 9.355469 54.070312 C 9.671875 54.210938 9.8125 54.578125 9.671875 54.886719 Z M 9.671875 54.886719 " fill-opacity="1" fill-rule="nonzero"/><path fill="rgb(10.978699%, 56.858826%, 94.898987%)" d="M 12.28125 48.078125 C 13.148438 48.550781 13.496094 49.632812 13.054688 50.492188 C 12.613281 51.351562 11.539062 51.699219 10.648438 51.273438 C 9.761719 50.839844 9.414062 49.761719 9.875 48.859375 C 10.335938 47.957031 11.414062 47.605469 12.28125 48.078125 Z M 12.28125 48.078125 " fill-opacity="1" fill-rule="nonzero"/><path fill="rgb(10.978699%, 56.858826%, 94.898987%)" d="M 18.738281 38.964844 C 18.027344 39.972656 17.292969 40.953125 16.648438 42.003906 L 15.652344 43.558594 C 15.320312 44.078125 14.976562 44.589844 14.683594 45.132812 C 14.515625 45.429688 14.132812 45.527344 13.835938 45.355469 C 13.539062 45.183594 13.441406 44.792969 13.613281 44.496094 C 13.917969 43.949219 14.257812 43.425781 14.597656 42.902344 L 15.609375 41.324219 C 16.257812 40.261719 17.011719 39.257812 17.726562 38.242188 C 17.929688 37.957031 18.316406 37.890625 18.597656 38.09375 C 18.875 38.296875 18.933594 38.683594 18.738281 38.964844 Z M 18.738281 38.964844 " fill-opacity="1" fill-rule="nonzero"/><path fill="rgb(10.978699%, 56.858826%, 94.898987%)" d="M 22.71875 32.851562 C 23.097656 33.171875 23.308594 33.609375 23.347656 34.0625 C 23.386719 34.511719 23.246094 34.964844 22.949219 35.351562 C 22.351562 36.113281 21.234375 36.238281 20.457031 35.632812 C 19.675781 35.027344 19.554688 33.886719 20.179688 33.09375 C 20.484375 32.691406 20.945312 32.476562 21.410156 32.433594 C 21.871094 32.394531 22.34375 32.53125 22.71875 32.851562 Z M 22.71875 32.851562 " fill-opacity="1" fill-rule="nonzero"/><path fill="rgb(10.978699%, 56.858826%, 94.898987%)" d="M 30.898438 25.25 L 28.226562 27.796875 C 27.359375 28.667969 26.523438 29.574219 25.667969 30.460938 C 25.429688 30.707031 25.035156 30.722656 24.777344 30.488281 C 24.523438 30.257812 24.511719 29.867188 24.753906 29.613281 C 25.617188 28.714844 26.464844 27.796875 27.347656 26.914062 L 30.054688 24.332031 C 30.304688 24.085938 30.714844 24.125 30.941406 24.375 C 31.175781 24.628906 31.140625 25.007812 30.898438 25.25 Z M 30.898438 25.25 " fill-opacity="1" fill-rule="nonzero"/><path fill="rgb(10.978699%, 56.858826%, 94.898987%)" d="M 36.070312 20.105469 C 36.667969 20.890625 36.539062 22.007812 35.78125 22.605469 C 35.011719 23.191406 33.910156 23.105469 33.269531 22.351562 C 32.632812 21.597656 32.726562 20.4375 33.535156 19.820312 C 34.335938 19.195312 35.46875 19.320312 36.070312 20.105469 Z M 36.070312 20.105469 " fill-opacity="1" fill-rule="nonzero"/><path fill="rgb(10.978699%, 56.858826%, 94.898987%)" d="M 45.648438 14.375 C 44.570312 14.964844 43.546875 15.652344 42.507812 16.3125 L 40.953125 17.308594 L 39.449219 18.378906 C 39.167969 18.574219 38.78125 18.511719 38.578125 18.230469 C 38.378906 17.949219 38.445312 17.5625 38.730469 17.359375 L 40.257812 16.277344 L 41.832031 15.265625 C 42.886719 14.597656 43.917969 13.898438 45.015625 13.296875 C 45.320312 13.125 45.703125 13.226562 45.875 13.523438 C 46.046875 13.824219 45.949219 14.199219 45.648438 14.375 Z M 45.648438 14.375 " fill-opacity="1" fill-rule="nonzero"/><path fill="rgb(10.978699%, 56.858826%, 94.898987%)" d="M 51.757812 10.382812 C 52.183594 11.273438 51.832031 12.355469 50.96875 12.792969 C 50.109375 13.238281 49.03125 12.886719 48.5625 12.015625 C 48.097656 11.144531 48.449219 10.066406 49.351562 9.601562 C 50.257812 9.140625 51.335938 9.488281 51.757812 10.382812 Z M 51.757812 10.382812 " fill-opacity="1" fill-rule="nonzero"/><path fill="rgb(10.978699%, 56.858826%, 94.898987%)" d="M 62.335938 6.796875 C 59.992188 7.542969 57.707031 8.464844 55.433594 9.40625 C 55.121094 9.546875 54.757812 9.40625 54.617188 9.089844 C 54.476562 8.773438 54.625 8.402344 54.941406 8.257812 C 57.25 7.304688 59.566406 6.371094 61.945312 5.609375 C 62.273438 5.496094 62.628906 5.671875 62.730469 6 C 62.835938 6.332031 62.660156 6.683594 62.335938 6.796875 Z M 62.335938 6.796875 " fill-opacity="1" fill-rule="nonzero"/><path fill="rgb(10.978699%, 56.858826%, 94.898987%)" d="M 69.148438 4.1875 C 69.261719 4.667969 69.171875 5.148438 68.941406 5.535156 C 68.707031 5.917969 68.332031 6.207031 67.863281 6.347656 C 66.929688 6.613281 65.957031 6.054688 65.679688 5.109375 C 65.402344 4.160156 65.96875 3.167969 66.949219 2.890625 C 67.433594 2.742188 67.929688 2.839844 68.332031 3.078125 C 68.730469 3.320312 69.03125 3.710938 69.148438 4.1875 Z M 69.148438 4.1875 " fill-opacity="1" fill-rule="nonzero"/><path fill="rgb(10.978699%, 56.858826%, 94.898987%)" d="M 80.234375 2.863281 L 76.574219 3.335938 L 72.9375 3.984375 C 72.601562 4.042969 72.273438 3.816406 72.203125 3.484375 C 72.132812 3.144531 72.351562 2.820312 72.699219 2.757812 L 76.382812 2.101562 L 80.09375 1.625 C 80.441406 1.582031 80.75 1.824219 80.785156 2.164062 C 80.820312 2.507812 80.574219 2.820312 80.234375 2.863281 Z M 80.234375 2.863281 " fill-opacity="1" fill-rule="nonzero"/><path fill="rgb(10.978699%, 56.858826%, 94.898987%)" d="M 87.441406 1.75 C 87.46875 2.734375 86.699219 3.554688 85.738281 3.578125 C 84.773438 3.636719 83.929688 2.910156 83.859375 1.921875 C 83.785156 0.9375 84.550781 0.0664062 85.558594 0.0078125 C 86.574219 -0.0195312 87.417969 0.761719 87.441406 1.75 Z M 87.441406 1.75 " fill-opacity="1" fill-rule="nonzero"/><path fill="rgb(10.978699%, 56.858826%, 94.898987%)" d="M 98.566406 2.730469 L 94.886719 2.449219 C 93.660156 2.382812 92.425781 2.378906 91.195312 2.339844 C 90.851562 2.332031 90.574219 2.042969 90.578125 1.699219 C 90.578125 1.351562 90.863281 1.082031 91.210938 1.089844 C 92.460938 1.128906 93.710938 1.132812 94.953125 1.203125 L 98.6875 1.484375 C 99.039062 1.507812 99.285156 1.820312 99.25 2.164062 C 99.214844 2.507812 98.910156 2.75 98.566406 2.730469 Z M 98.566406 2.730469 " fill-opacity="1" fill-rule="nonzero"/><path fill="rgb(10.978699%, 56.858826%, 94.898987%)" d="M 105.847656 3.125 C 105.667969 4.097656 104.75 4.75 103.796875 4.578125 C 103.558594 4.535156 103.339844 4.441406 103.144531 4.320312 C 102.949219 4.207031 102.78125 4.050781 102.644531 3.871094 C 102.371094 3.511719 102.234375 3.042969 102.304688 2.554688 C 102.371094 2.066406 102.636719 1.648438 103.007812 1.371094 C 103.191406 1.230469 103.40625 1.125 103.640625 1.066406 C 103.871094 1.007812 104.113281 1.003906 104.363281 1.046875 C 105.363281 1.222656 106.027344 2.15625 105.847656 3.125 Z M 105.847656 3.125 " fill-opacity="1" fill-rule="nonzero"/><path fill="rgb(10.978699%, 56.858826%, 94.898987%)" d="M 116.523438 6.398438 C 114.167969 5.6875 111.804688 4.996094 109.394531 4.484375 C 109.0625 4.40625 108.847656 4.070312 108.925781 3.734375 C 108.996094 3.394531 109.332031 3.1875 109.671875 3.265625 C 112.117188 3.785156 114.511719 4.488281 116.902344 5.207031 C 117.230469 5.316406 117.410156 5.671875 117.304688 6 C 117.195312 6.328125 116.847656 6.503906 116.523438 6.398438 Z M 116.523438 6.398438 " fill-opacity="1" fill-rule="nonzero"/><path fill="rgb(10.978699%, 56.858826%, 94.898987%)" d="M 123.5625 8.300781 C 123.1875 9.214844 122.148438 9.664062 121.246094 9.3125 C 120.347656 8.957031 119.890625 7.90625 120.222656 6.996094 C 120.558594 6.050781 121.597656 5.605469 122.539062 5.976562 C 123.484375 6.347656 123.945312 7.386719 123.5625 8.300781 Z M 123.5625 8.300781 " fill-opacity="1" fill-rule="nonzero"/><path fill="rgb(10.978699%, 56.858826%, 94.898987%)" d="M 133.3125 13.753906 C 132.773438 13.449219 132.246094 13.136719 131.710938 12.839844 L 130.066406 12 L 128.421875 11.15625 C 128.152344 11.011719 127.871094 10.878906 127.589844 10.757812 L 126.75 10.375 C 126.433594 10.234375 126.296875 9.867188 126.4375 9.550781 C 126.578125 9.238281 126.953125 9.097656 127.269531 9.242188 L 128.121094 9.628906 C 128.410156 9.753906 128.691406 9.886719 128.964844 10.035156 L 130.628906 10.886719 L 132.296875 11.738281 C 132.84375 12.042969 133.378906 12.359375 133.921875 12.667969 C 134.226562 12.839844 134.328125 13.222656 134.15625 13.519531 C 133.988281 13.820312 133.605469 13.921875 133.3125 13.753906 Z M 133.3125 13.753906 " fill-opacity="1" fill-rule="nonzero"/><path fill="rgb(10.978699%, 56.858826%, 94.898987%)" d="M 139.808594 17.066406 C 139.527344 17.472656 139.113281 17.726562 138.671875 17.808594 C 138.222656 17.90625 137.738281 17.835938 137.332031 17.570312 C 136.519531 17.050781 136.28125 15.945312 136.800781 15.105469 C 137.324219 14.269531 138.4375 14.03125 139.289062 14.578125 C 139.714844 14.851562 139.992188 15.265625 140.085938 15.710938 C 140.175781 16.171875 140.089844 16.65625 139.808594 17.066406 Z M 139.808594 17.066406 " fill-opacity="1" fill-rule="nonzero"/><path fill="rgb(10.978699%, 56.858826%, 94.898987%)" d="M 148.210938 24.425781 L 146.8125 23.21875 C 146.34375 22.820312 145.894531 22.398438 145.402344 22.027344 L 142.5 19.746094 C 142.222656 19.542969 142.160156 19.160156 142.363281 18.882812 C 142.566406 18.605469 142.964844 18.542969 143.246094 18.746094 L 146.1875 21.058594 C 146.6875 21.433594 147.140625 21.863281 147.617188 22.265625 L 149.03125 23.492188 C 149.292969 23.71875 149.316406 24.113281 149.085938 24.367188 C 148.863281 24.625 148.46875 24.648438 148.210938 24.425781 Z M 148.210938 24.425781 " fill-opacity="1" fill-rule="nonzero"/><path fill="rgb(10.978699%, 56.858826%, 94.898987%)" d="M 153.867188 29.027344 C 153.148438 29.707031 152.027344 29.6875 151.359375 28.992188 C 150.675781 28.308594 150.648438 27.199219 151.335938 26.484375 C 152.015625 25.773438 153.179688 25.753906 153.894531 26.46875 C 154.59375 27.203125 154.585938 28.347656 153.867188 29.027344 Z M 153.867188 29.027344 " fill-opacity="1" fill-rule="nonzero"/><path fill="rgb(10.978699%, 56.858826%, 94.898987%)" d="M 160.578125 37.953125 C 159.09375 35.992188 157.582031 34.050781 155.941406 32.214844 C 155.71875 31.957031 155.742188 31.558594 156 31.328125 C 156.253906 31.101562 156.648438 31.128906 156.875 31.390625 C 158.542969 33.25 160.074219 35.222656 161.582031 37.210938 C 161.785156 37.496094 161.722656 37.890625 161.441406 38.09375 C 161.160156 38.296875 160.777344 38.230469 160.578125 37.953125 Z M 160.578125 37.953125 " fill-opacity="1" fill-rule="nonzero"/><path fill="rgb(10.978699%, 56.858826%, 94.898987%)" d="M 165.167969 43.625 C 164.324219 44.140625 163.214844 43.898438 162.695312 43.085938 C 162.171875 42.269531 162.410156 41.160156 163.226562 40.601562 C 164.042969 40.042969 165.148438 40.285156 165.699219 41.140625 C 166.246094 41.996094 166.007812 43.109375 165.167969 43.625 Z M 165.167969 43.625 " fill-opacity="1" fill-rule="nonzero"/><path fill="rgb(10.978699%, 56.858826%, 94.898987%)" d="M 169.855469 53.757812 L 169.09375 52.078125 C 168.824219 51.523438 168.539062 50.980469 168.261719 50.433594 C 167.691406 49.34375 167.167969 48.230469 166.527344 47.175781 C 166.355469 46.875 166.457031 46.5 166.757812 46.328125 C 167.054688 46.15625 167.441406 46.265625 167.613281 46.566406 C 168.261719 47.636719 168.792969 48.765625 169.367188 49.875 C 169.648438 50.429688 169.945312 50.980469 170.21875 51.542969 L 170.988281 53.25 C 171.132812 53.566406 170.992188 53.933594 170.679688 54.074219 C 170.363281 54.207031 169.996094 54.070312 169.855469 53.757812 Z M 169.855469 53.757812 " fill-opacity="1" fill-rule="nonzero"/><path fill="rgb(10.978699%, 56.858826%, 94.898987%)" d="M 173.171875 60.257812 C 172.707031 60.421875 172.222656 60.382812 171.816406 60.191406 C 171.40625 60 171.046875 59.667969 170.871094 59.214844 C 170.515625 58.3125 170.96875 57.28125 171.886719 56.90625 C 172.800781 56.53125 173.84375 56.996094 174.21875 57.941406 C 174.402344 58.410156 174.390625 58.902344 174.191406 59.324219 C 173.992188 59.75 173.636719 60.089844 173.171875 60.257812 Z M 173.171875 60.257812 " fill-opacity="1" fill-rule="nonzero"/><path fill="rgb(10.978699%, 56.858826%, 94.898987%)" d="M 175.640625 71.148438 L 175.226562 69.347656 C 175.082031 68.75 174.964844 68.144531 174.78125 67.558594 L 173.777344 64.003906 C 173.675781 63.679688 173.84375 63.332031 174.175781 63.226562 C 174.503906 63.125 174.867188 63.304688 174.964844 63.636719 L 175.988281 67.238281 C 176.171875 67.835938 176.285156 68.453125 176.433594 69.058594 L 176.855469 70.882812 C 176.933594 71.21875 176.722656 71.554688 176.386719 71.621094 C 176.054688 71.695312 175.71875 71.476562 175.640625 71.148438 Z M 175.640625 71.148438 " fill-opacity="1" fill-rule="nonzero"/><path fill="rgb(10.978699%, 56.858826%, 94.898987%)" d="M 177.511719 78.195312 C 176.527344 78.320312 175.644531 77.644531 175.511719 76.6875 C 175.339844 75.734375 175.988281 74.824219 176.964844 74.648438 C 177.933594 74.476562 178.871094 75.144531 179.046875 76.140625 C 179.183594 77.148438 178.484375 78.070312 177.511719 78.195312 Z M 177.511719 78.195312 " fill-opacity="1" fill-rule="nonzero"/><path fill="rgb(10.978699%, 56.858826%, 94.898987%)" d="M 177.675781 89.359375 L 177.582031 85.667969 C 177.511719 84.441406 177.402344 83.214844 177.3125 81.988281 C 177.289062 81.644531 177.542969 81.339844 177.882812 81.308594 C 178.226562 81.273438 178.523438 81.527344 178.554688 81.875 C 178.644531 83.121094 178.75 84.367188 178.828125 85.609375 L 178.921875 89.351562 C 178.929688 89.703125 178.65625 89.980469 178.3125 89.980469 C 177.972656 89.980469 177.683594 89.703125 177.675781 89.359375 Z M 177.675781 89.359375 " fill-opacity="1" fill-rule="nonzero"/></svg>