<?xml version="1.0" encoding="UTF-8"?><svg xmlns="http://www.w3.org/2000/svg" xmlns:xlink="http://www.w3.org/1999/xlink" contentScriptType="text/ecmascript" width="52.5" zoomAndPan="magnify" contentStyleType="text/css" viewBox="0 0 52.5 52.499999" height="52.499999" preserveAspectRatio="xMidYMid meet" version="1.0"><defs><clipPath id="clip-0"><path d="M 12.160156 6.199219 L 46.660156 6.199219 L 46.660156 44.449219 L 12.160156 44.449219 Z M 12.160156 6.199219 " clip-rule="nonzero"/></clipPath></defs><g clip-path="url(#clip-0)"><path fill="rgb(34.509277%, 55.288696%, 89.408875%)" d="M 45.660156 23.65625 L 15.039062 6.445312 C 14.445312 6.113281 13.71875 6.121094 13.136719 6.460938 C 12.546875 6.804688 12.1875 7.433594 12.1875 8.113281 L 12.1875 42.539062 C 12.1875 43.21875 12.546875 43.847656 13.136719 44.191406 C 13.433594 44.363281 13.765625 44.449219 14.097656 44.449219 C 14.421875 44.449219 14.746094 44.371094 15.039062 44.207031 L 45.660156 26.992188 C 46.261719 26.652344 46.636719 26.015625 46.636719 25.324219 C 46.636719 24.632812 46.261719 23.996094 45.660156 23.65625 Z M 45.660156 23.65625 " fill-opacity="1" fill-rule="nonzero"/></g></svg>