<svg
    xmlns="http://www.w3.org/2000/svg"
    x="0px"
    y="0px"
    width="45"
    height="45"
    viewBox="0 0 172 172"
    style=" fill:#000000;">
    <g transform="">
        <g
            fill="none"
            fill-rule="nonzero"
            stroke="none"
            stroke-width="1"
            stroke-linecap="butt"
            stroke-linejoin="miter"
            stroke-miterlimit="10"
            stroke-dasharray=""
            stroke-dashoffset="0"
            font-family="none"
            font-weight="none"
            font-size="none"
            text-anchor="none"
            style="mix-blend-mode: normal">
            <path d="M0,172v-172h172v172z" fill="none"></path>
            <g fill="#588de4">
                <path
                    d="M87.72,10.32c-10.43352,0 -18.92,8.48648 -18.92,18.92c0,10.43352 8.48648,18.92 18.92,18.92c10.43352,0 18.92,-8.48648 18.92,-18.92c0,-10.43352 -8.48648,-18.92 -18.92,-18.92zM74.98125,55.04c-11.96432,0 -22.86488,6.89198 -27.9836,17.7039l-8.54625,18.05328l-23.11922,13.87422c-3.24392,1.9436 -5.03283,5.39306 -5.01219,8.9225c0.01032,1.78536 0.48413,3.59631 1.47141,5.24063c1.93328,3.21984 5.34667,5.00203 8.84859,5.00547c1.80944,0.00344 3.64957,-0.47036 5.31453,-1.4714l25.8,-15.48c0.06536,-0.09976 0.14964,-0.22946 0.215,-0.32922c1.3588,-9.46344 6.28687,-18.06521 13.39047,-24.00609v8.6739c0,0.73616 -0.24843,1.43738 -0.68531,2.02906c-3.5604,4.80912 -5.81677,10.66255 -6.17453,16.83047h-0.02015v12.47c0,0 -26.17018,13.86815 -30.87266,18.57063c-4.70248,4.70248 -4.70248,12.32955 0,17.03203c2.35296,2.34608 5.43042,3.52063 8.51266,3.52063c0.98384,0 11.70782,-0.00656 25.88063,-0.01344c-2.17752,-2.88272 -3.52063,-6.4228 -3.52063,-10.30656c0,-8.66192 6.47392,-15.99579 15.05672,-17.06563l32.73375,-3.55422c1.9092,-0.19264 3.58298,1.16519 3.78938,3.05031c0.2064,1.88856 -1.16175,3.58298 -3.05031,3.78938l-32.68,3.5475c-5.0912,0.63296 -8.96953,5.03481 -8.96953,10.23265c0,5.63816 4.54795,10.224 10.16547,10.30656c28.72056,-0.01032 62.75581,-0.02704 63.78781,-0.02016c3.0788,0.0172 6.16641,-1.13735 8.51937,-3.49375c4.70248,-4.70248 4.70248,-12.32283 0,-17.02531c-4.70248,-4.70248 -30.87937,-18.57735 -30.87937,-18.57735v-12.47h-0.01344c-0.35776,-6.16792 -2.61413,-12.01463 -6.17453,-16.82375c-0.43688,-0.59168 -0.69203,-1.2929 -0.69203,-2.02906v-8.6739c7.1036,5.94088 12.03839,14.54265 13.39719,24.00609c0.06536,0.09976 0.14964,0.22274 0.215,0.3225l25.8,15.48c1.6684,1.00104 3.50853,1.47813 5.31453,1.47813c3.50536,0 6.91188,-1.78547 8.8486,-5.01219c0.98728,-1.64432 1.46108,-3.45183 1.4714,-5.24063c0.02064,-3.526 -1.76827,-6.97218 -5.01219,-8.91578l-23.11922,-13.87422l-8.54625,-18.05328c-5.12216,-10.81192 -16.01928,-17.7039 -27.9836,-17.7039zM82.26437,99.76c2.2704,0 4.27227,1.12219 5.45563,2.83531c1.18336,-1.71312 3.18522,-2.83531 5.45563,-2.83531c3.63608,0 6.58437,2.88616 6.58437,6.45c0,6.81808 -12.04,14.19 -12.04,14.19c0,0 -12.04,-7.37192 -12.04,-14.19c0,-3.56384 2.94829,-6.45 6.58437,-6.45z"></path>
            </g>
            <path d="" fill="none"></path>
        </g>
    </g>
</svg>