<svg
    xmlns="http://www.w3.org/2000/svg"
    x="0px"
    y="0px"
    width="50"
    height="50"
    viewBox="0 0 172 172"
    style=" fill:#000000;">
    <g transform="">
        <g
            fill="none"
            fill-rule="nonzero"
            stroke="none"
            stroke-width="1"
            stroke-linecap="butt"
            stroke-linejoin="miter"
            stroke-miterlimit="10"
            stroke-dasharray=""
            stroke-dashoffset="0"
            font-family="none"
            font-weight="none"
            font-size="none"
            text-anchor="none"
            style="mix-blend-mode: normal">
            <path d="M0,172v-172h172v172z" fill="none"></path>
            <g id="original-icon" fill="#458feb">
                <path
                    d="M129,0.82692c-8.65685,0 -15.71154,7.05469 -15.71154,15.71154c0,8.65685 7.05469,15.71154 15.71154,15.71154c8.65685,0 15.71154,-7.05469 15.71154,-15.71154c0,-8.65685 -7.05469,-15.71154 -15.71154,-15.71154zM72.76923,25.01442c-1.05949,0.20673 -1.96394,0.62019 -2.89423,1.24038l-23.36058,17.98558c-3.82452,3.30769 -7.49399,7.44231 -4.96154,11.16346c1.60217,2.40324 7.23558,1.13702 10.12981,-0.62019l24.39423,-13.02404l15.91827,3.51442l-21.70673,32.04327c-4.96154,8.60517 -6.46033,15.32392 2.48077,22.94712l10.12981,6.20192l20.67308,14.26442l-13.02404,31.62981c-4.85817,11.65445 -3.54026,16.77103 -0.20673,18.19231c3.33353,1.42128 7.7524,0.67188 14.67788,-11.99038l19.63942,-37.41827c1.91226,-4.31551 0.59435,-9.32872 -3.30769,-11.99038l-24.80769,-16.95192l17.57212,-28.32212l7.02885,15.71154c1.16286,2.60997 3.77284,5.03906 6.61538,5.375c0,0 20.02704,-0.3101 25.42788,-0.62019c5.6851,-0.3101 12.04207,-1.47296 12.19712,-5.375c0.20673,-5.58173 -5.21995,-5.84014 -10.33654,-6.20192l-19.84615,-1.86058l-11.57692,-25.84135c-0.12921,-0.3101 -0.4393,-0.54267 -0.62019,-0.82692c-0.05168,-0.23257 -0.12921,-0.41346 -0.20673,-0.62019c-0.07753,-0.12921 -0.10337,-0.28426 -0.20673,-0.41346c-0.18089,-0.3101 -0.36178,-0.4393 -0.62019,-0.62019l-0.20673,-0.20673c-0.77524,-0.72356 -1.70553,-1.29206 -2.6875,-1.65385l-11.78365,-8.26923c-0.85276,-0.62019 -1.80889,-1.00781 -2.89423,-1.24038l-28.32212,-6.20192c-1.08533,-0.23257 -2.2482,-0.20673 -3.30769,0zM60.36538,99.85096l-9.30288,12.81731c0,0 -24.36839,1.75721 -33.07692,2.27404c-6.66706,0.38762 -10.54327,2.92007 -10.54327,7.23558c0,4.31551 3.20433,6.66707 12.81731,7.44231c8.11419,0.64603 35.97115,2.27404 35.97115,2.27404c3.23017,0 6.66707,-1.67969 8.88942,-4.96154l9.09615,-13.23077c0,0 -12.92067,-8.73437 -13.85096,-13.85096z"></path>
            </g>
            <path d="" fill="none"></path>
        </g>
    </g>
</svg>