<svg
    xmlns="http://www.w3.org/2000/svg"
    x="0px"
    y="0px"
    width="50"
    height="50"
    viewBox="0 0 172 172"
    style=" fill:#000000;">
    <g
        fill="none"
        fill-rule="nonzero"
        stroke="none"
        stroke-width="1"
        stroke-linecap="butt"
        stroke-linejoin="miter"
        stroke-miterlimit="10"
        stroke-dasharray=""
        stroke-dashoffset="0"
        font-family="none"
        font-weight="none"
        font-size="none"
        text-anchor="none"
        style="mix-blend-mode: normal">
        <path d="M0,172v-172h172v172z" fill="none"></path>
        <g fill="#458feb">
            <path
                d="M106.05547,17.2c-7.912,0 -14.32214,6.41587 -14.32214,14.32214c0,7.91773 6.41014,14.34453 14.32214,14.34453c7.9292,0 14.34453,-6.4268 14.34453,-14.34453c0,-7.90627 -6.41533,-14.32214 -14.34453,-14.32214zM60.2,51.6c-3.60184,0 -7.00999,1.70968 -9.17109,4.59115l-15.48672,20.63776c-1.22884,1.64022 -1.4891,3.8115 -0.68272,5.69567c0.80639,1.88418 2.55686,3.1949 4.59184,3.43828c2.03498,0.24338 4.04519,-0.61757 5.27316,-2.25844l15.10599,-20.13385l13.82942,2.76588l-9.85417,29.45052l0.06719,0.0224c-0.47889,1.42968 -0.80625,2.92283 -0.80625,4.51276c0,7.91773 6.41014,14.34453 14.32214,14.34453c1.23923,0 2.4258,-0.20901 3.57214,-0.50391l26.25911,-3.68411l38.35286,9.07031l1.67969,0.5599c1.94445,0.64864 4.08726,0.21049 5.62102,-1.14937c1.53376,-1.35986 2.2254,-3.43476 1.8143,-5.4429c-0.4111,-2.00814 -1.86245,-3.64435 -3.8072,-4.2921l-34.4,-11.46667c-0.39628,-0.12998 -0.80556,-0.21635 -1.22057,-0.25755l-20.46979,-3.98646l6.27083,-18.77891l16.00183,10.17891c1.72566,1.24228 3.99708,1.42761 5.9013,0.48151l22.93333,-11.46667c1.83265,-0.91594 3.03736,-2.7401 3.16022,-4.7852c0.12287,-2.04511 -0.85477,-4.00038 -2.56458,-5.12915c-1.70981,-1.12877 -3.89196,-1.2595 -5.7243,-0.34294l-19.23802,9.61901l-14.97161,-14.97161c-4.3008,-4.30079 -10.13349,-6.71875 -16.21459,-6.71875zM58.02761,117.21979c-2.666,5.06253 -6.27084,11.94253 -6.27083,12.18333c0,0.3784 -25.10573,8.55521 -25.10573,8.55521v0.0112c-2.23521,0.8394 -3.71623,2.97617 -3.71771,5.3638c0,3.16643 2.5669,5.73333 5.73333,5.73333c0.51864,-0.0012 1.03472,-0.07278 1.53411,-0.21276c0.00373,0 0.00747,0 0.0112,0l26.25912,-5.30782c2.53413,-0.51027 4.8152,-1.86861 6.4836,-3.84088l11.69062,-13.85183c-6.622,-0.71093 -12.46104,-3.8692 -16.61771,-8.6336z"></path>
        </g>
    </g>
</svg>